<svg width="35" height="34" viewBox="0 0 35 34" fill="none" xmlns="http://www.w3.org/2000/svg">
<circle cx="17.2414" cy="17" r="17" fill="#FEFCFC" fill-opacity="0.3"/>
<g clip-path="url(#clip0)">
<path d="M24.9414 23.3L21.8364 20.195C22.7144 19.024 23.2414 17.576 23.2414 16C23.2414 12.134 20.1074 9 16.2414 9C12.3754 9 9.24139 12.134 9.24139 16C9.24139 19.866 12.3754 23 16.2414 23C17.8174 23 19.2654 22.473 20.4354 21.595L23.5414 24.7C23.7254 24.884 23.9214 25 24.2414 25C24.7944 25 25.2414 24.553 25.2414 24C25.2414 23.781 25.1874 23.546 24.9414 23.3ZM11.2414 16C11.2414 13.238 13.4794 11 16.2414 11C19.0034 11 21.2414 13.238 21.2414 16C21.2414 18.762 19.0034 21 16.2414 21C13.4794 21 11.2414 18.762 11.2414 16Z" fill="#FEFCFC"/>
</g>
<defs>
<clipPath id="clip0">
<rect width="16" height="16" fill="white" transform="translate(9.24139 9)"/>
</clipPath>
</defs>
</svg>
