<?xml version="1.0" encoding="UTF-8" standalone="no"?><!-- Generator: Gravit.io --><svg xmlns="http://www.w3.org/2000/svg" xmlns:xlink="http://www.w3.org/1999/xlink" style="isolation:isolate" viewBox="0 0 515 515" width="515pt" height="515pt"><defs><clipPath id="_clipPath_pPgTLMQ0yuK5l8xrIHZi2I8EFXarSNYY"><rect width="515" height="515"/></clipPath></defs><g clip-path="url(#_clipPath_pPgTLMQ0yuK5l8xrIHZi2I8EFXarSNYY)"><clipPath id="_clipPath_X8kgRIA7mUAw7EOHan2DrNBMOo2sP9L1"><rect x="0" y="0" width="515" height="515" transform="matrix(1,0,0,1,0,0)" fill="rgb(255,255,255)"/></clipPath><g clip-path="url(#_clipPath_X8kgRIA7mUAw7EOHan2DrNBMOo2sP9L1)"><g><g><path d=" M 257.5 465.8 C 372.7 465.9 466.1 372.7 466.3 257.5 C 466.5 142.3 373.1 48.9 258 48.7 C 142.9 48.5 49.3 141.9 49.2 257 C 49.1 312.4 71.1 365.5 110.3 404.7 C 149.3 443.9 202.3 465.8 257.5 465.8 Z  M 257.5 70.1 C 361.1 70 445.2 154 445.3 257.6 C 445.4 361.2 361.4 445.3 257.8 445.4 C 154.2 445.4 70.1 361.5 70 257.9 C 70 208.1 89.7 160.3 125 125 C 160.1 89.8 207.8 70 257.5 70.1 L 257.5 70.1 L 257.5 70.1 Z " fill="rgb(255,255,255)"/></g></g></g><g><g><path d=" M 353.464 327.627 L 309.173 283.336 C 317.477 270.418 322.091 255.655 322.091 239.045 C 322.091 192.909 285.182 156 239.045 156 C 192.909 156 156 192.909 156 239.045 C 156 285.182 192.909 322.091 239.045 322.091 C 255.655 322.091 270.418 317.477 283.336 309.173 L 327.627 353.464 C 331.318 357.155 335.932 359 340.545 359 C 350.695 359 359 350.695 359 340.545 C 359 335.009 357.155 330.395 353.464 327.627 Z  M 192.909 239.045 C 192.909 213.209 213.209 192.909 239.045 192.909 C 264.882 192.909 285.182 213.209 285.182 239.045 C 285.182 264.882 264.882 285.182 239.045 285.182 C 213.209 285.182 192.909 264.882 192.909 239.045 Z " fill="rgb(255,255,255)"/></g></g></g></svg>