<svg version="1.2" baseProfile="tiny-ps" xmlns="http://www.w3.org/2000/svg" viewBox="0 0 20 20" width="20" height="20">
	<title>icon-earth-svg</title>
	<style>
		tspan { white-space:pre }
		.shp0 { fill: #ffffff } 
	</style>
	<path id="Layer" fill-rule="evenodd" class="shp0" d="M19.77 10C19.77 15.39 15.39 19.77 10 19.77C4.61 19.77 0.23 15.39 0.23 10C0.23 4.61 4.61 0.23 10 0.23C15.39 0.23 19.77 4.61 19.77 10ZM3.59 4.05C4.53 4.57 5.53 4.97 6.54 5.24C7.05 3.85 7.79 2.53 8.74 1.35C6.72 1.64 4.92 2.62 3.59 4.05ZM1.26 9.67L5.71 9.67C5.74 8.36 5.95 7.09 6.33 5.87C5.23 5.57 4.17 5.13 3.15 4.56C2.03 5.97 1.33 7.74 1.26 9.67ZM3.15 15.44C4.17 14.86 5.23 14.43 6.33 14.13C5.95 12.91 5.74 11.64 5.71 10.33L1.26 10.33C1.33 12.26 2.03 14.03 3.15 15.44ZM8.74 18.65C7.79 17.47 7.05 16.15 6.54 14.75C5.53 15.03 4.53 15.43 3.59 15.95C4.92 17.38 6.72 18.36 8.74 18.65ZM9.67 14.3C8.83 14.32 8.01 14.42 7.19 14.6C7.75 16.11 8.59 17.51 9.67 18.73L9.67 14.3ZM9.67 10.33L6.37 10.33C6.4 11.58 6.61 12.81 6.97 13.97C7.86 13.78 8.77 13.67 9.67 13.65L9.67 10.33ZM9.67 6.35C8.77 6.33 7.86 6.23 6.97 6.03C6.61 7.19 6.4 8.42 6.37 9.67L9.67 9.67L9.67 6.35ZM9.67 1.26C8.58 2.49 7.75 3.89 7.19 5.4C8.01 5.57 8.84 5.67 9.67 5.69L9.67 1.26ZM16.85 4.56C15.83 5.13 14.77 5.57 13.67 5.87C14.05 7.11 14.25 8.39 14.29 9.67L18.74 9.67C18.67 7.74 17.97 5.97 16.85 4.56ZM11.26 1.35C12.21 2.54 12.95 3.86 13.45 5.25C14.47 4.97 15.47 4.57 16.41 4.05C15.08 2.62 13.28 1.64 11.26 1.35ZM10.33 5.7C11.17 5.67 11.99 5.58 12.81 5.4C12.26 3.92 11.43 2.51 10.33 1.27L10.33 5.7ZM10.33 6.35L10.33 9.67L13.63 9.67C13.6 8.44 13.39 7.21 13.03 6.03C12.14 6.23 11.23 6.33 10.33 6.35ZM10.33 13.64C11.24 13.67 12.14 13.77 13.03 13.97C13.39 12.79 13.59 11.56 13.63 10.33L10.33 10.33L10.33 13.64ZM10.33 18.74C11.43 17.49 12.26 16.09 12.81 14.6C11.99 14.42 11.17 14.33 10.33 14.31L10.33 18.74ZM16.41 15.95C15.47 15.43 14.47 15.03 13.45 14.75C12.95 16.14 12.22 17.46 11.26 18.65C13.28 18.36 15.08 17.38 16.41 15.95ZM18.73 10.33L14.28 10.33C14.25 11.61 14.04 12.89 13.66 14.13C14.76 14.43 15.83 14.87 16.85 15.44C17.97 14.03 18.67 12.26 18.73 10.33Z" />
</svg>