<?xml version="1.0" encoding="UTF-8" standalone="no"?><!-- Generator: Gravit.io --><svg xmlns="http://www.w3.org/2000/svg" xmlns:xlink="http://www.w3.org/1999/xlink" style="isolation:isolate" viewBox="0 0 515 515" width="515pt" height="515pt"><defs><clipPath id="_clipPath_PCEvLFzl2mOWW76C6miPmO8wapa1sH43"><rect width="515" height="515"/></clipPath></defs><g clip-path="url(#_clipPath_PCEvLFzl2mOWW76C6miPmO8wapa1sH43)"><g><path d=" M 215.7 261.1 L 230 261.1 L 230 347.6 C 230 349.5 231.6 351.1 233.5 351.1 L 270.9 351.1 C 272.8 351.1 274.4 349.5 274.4 347.6 L 274.4 261.1 L 296.1 261.1 C 297.9 261.1 299.4 259.7 299.6 258 L 302.9 226.2 C 303.1 224.3 301.7 222.6 299.8 222.4 C 299.7 222.4 299.6 222.4 299.4 222.4 L 274.4 222.4 L 274.4 207.2 C 274.4 206.2 274.5 205.2 274.9 204.3 C 275.3 203.4 276 202.7 277 202.4 C 277.6 202.2 278.2 202.1 278.8 202.1 L 298.9 202.1 C 300.8 202.1 302.4 200.5 302.4 198.6 L 302.4 167.8 C 302.4 165.9 300.8 164.3 298.9 164.3 L 271.2 164.2 L 271.2 164.2 C 264.2 164 257.2 165.5 250.8 168.4 C 246.9 170.2 243.4 172.8 240.5 175.9 C 236.6 180.1 233.8 185.2 232.1 190.7 C 230.6 195.5 229.9 200.4 229.9 205.4 L 229.9 222.5 L 215.6 222.5 C 213.7 222.5 212.1 224.1 212.1 226 L 212.1 257.8 C 212.2 259.5 213.7 261.1 215.7 261.1 L 215.7 261.1 L 215.7 261.1 Z " fill="rgb(255,255,255)"/><path d=" M 257.5 465.8 C 372.7 465.9 466.1 372.7 466.3 257.5 C 466.5 142.3 373.1 48.9 258 48.7 C 142.9 48.5 49.3 141.9 49.2 257 C 49.1 312.4 71.1 365.5 110.3 404.7 C 149.3 443.9 202.3 465.8 257.5 465.8 Z  M 257.5 70.1 C 361.1 70 445.2 154 445.3 257.6 C 445.4 361.2 361.4 445.3 257.8 445.4 C 154.2 445.4 70.1 361.5 70 257.9 C 70 208.1 89.7 160.3 125 125 C 160.1 89.8 207.8 70 257.5 70.1 L 257.5 70.1 L 257.5 70.1 Z " fill="rgb(255,255,255)"/></g></g></svg>