<?xml version="1.0" encoding="UTF-8" standalone="no"?><!-- Generator: Gravit.io --><svg xmlns="http://www.w3.org/2000/svg" xmlns:xlink="http://www.w3.org/1999/xlink" style="isolation:isolate" viewBox="0 0 515 515" width="515pt" height="515pt"><defs><clipPath id="_clipPath_ma8Bv1DGOR9VV2BQAWU0egkDsjXxh0P7"><rect width="515" height="515"/></clipPath></defs><g clip-path="url(#_clipPath_ma8Bv1DGOR9VV2BQAWU0egkDsjXxh0P7)"><g><path d=" M 257.5 465.8 C 372.7 465.9 466.1 372.7 466.3 257.5 C 466.5 142.3 373.1 48.9 258 48.7 C 142.9 48.5 49.3 141.9 49.2 257 C 49.1 312.4 71.1 365.5 110.3 404.7 C 149.3 443.9 202.3 465.8 257.5 465.8 Z  M 257.5 70.1 C 361.1 70 445.2 154 445.3 257.6 C 445.4 361.2 361.4 445.3 257.8 445.4 C 154.2 445.4 70.1 361.5 70 257.9 C 70 208.1 89.7 160.3 125 125 C 160.1 89.8 207.8 70 257.5 70.1 L 257.5 70.1 L 257.5 70.1 Z " fill="rgb(255,255,255)"/><path d=" M 161.7 319.5 C 179.9 331.2 201.1 337.4 222.7 337.4 C 239.4 337.5 256 334 271.2 327 C 291.3 317.6 308.1 302.2 319.4 283 C 330 265.2 335.7 244.9 335.9 224.1 C 335.9 223 335.9 221.9 335.9 220.8 C 343.1 215.3 349.4 208.7 354.5 201.1 C 355.6 199.5 355.1 197.3 353.5 196.2 C 352.5 195.5 351.2 195.4 350.1 195.9 C 347.4 197.1 344.7 198.1 341.9 198.9 C 345.4 194.8 348 190 349.6 184.9 C 350.2 183.1 349.2 181.1 347.3 180.5 C 346.3 180.2 345.3 180.3 344.4 180.8 C 337.7 184.8 330.4 187.6 322.8 189.3 C 306.1 173.1 279.5 173.6 263.3 190.3 C 255.7 198.1 251.5 208.6 251.5 219.6 C 251.5 221.3 251.6 222.9 251.8 224.6 C 223.4 222 197.3 208.1 179.3 185.9 C 178.1 184.4 175.9 184.2 174.4 185.4 C 174.1 185.7 173.8 186 173.6 186.4 C 164.9 201.4 166.2 220.2 177.1 233.7 C 175.6 233.1 174.2 232.5 172.8 231.7 C 171.1 230.8 169 231.4 168 233.1 C 167.7 233.6 167.6 234.1 167.6 234.7 C 167.6 235 167.6 235.1 167.6 235.3 C 167.6 249.5 174.8 262.8 186.8 270.6 C 186.3 270.5 185.8 270.4 185.3 270.3 C 183.4 269.9 181.6 271.2 181.2 273.1 C 181.1 273.7 181.1 274.3 181.3 274.8 C 185.7 288.7 197.1 299.3 211.2 302.8 C 197 311.4 180.4 315 164 313 C 162.1 312.8 160.3 314.1 160.1 316.1 C 160 317.4 160.6 318.7 161.7 319.5 L 161.7 319.5 L 161.7 319.5 Z " fill="rgb(255,255,255)"/></g></g></svg>