<svg width="34" height="38" viewBox="0 0 34 38" fill="none" xmlns="http://www.w3.org/2000/svg">
<g clip-path="url(#clip0)">
<path d="M29.9834 2.375H3.59801C2.64376 2.375 1.72859 2.75033 1.05383 3.41843C0.379075 4.08653 0 4.99267 0 5.9375L0 32.0625C0 33.0073 0.379075 33.9135 1.05383 34.5816C1.72859 35.2497 2.64376 35.625 3.59801 35.625H13.8861V24.3207H9.16367V19H13.8861V14.9447C13.8861 10.332 16.6595 7.78406 20.9074 7.78406C22.9418 7.78406 25.0691 8.14328 25.0691 8.14328V12.6706H22.7252C20.4157 12.6706 19.6953 14.0897 19.6953 15.5451V19H24.851L24.0264 24.3207H19.6953V35.625H29.9834C30.9376 35.625 31.8528 35.2497 32.5276 34.5816C33.2023 33.9135 33.5814 33.0073 33.5814 32.0625V5.9375C33.5814 4.99267 33.2023 4.08653 32.5276 3.41843C31.8528 2.75033 30.9376 2.375 29.9834 2.375Z" fill="#3E1818"/>
</g>
<defs>
<clipPath id="clip0">
<rect width="33.5814" height="38" fill="white"/>
</clipPath>
</defs>
</svg>
