<svg width="35" height="38" viewBox="0 0 35 38" fill="none" xmlns="http://www.w3.org/2000/svg">
<path d="M31.25 2.375H3.75C1.67969 2.375 0 3.9707 0 5.9375V32.0625C0 34.0293 1.67969 35.625 3.75 35.625H31.25C33.3203 35.625 35 34.0293 35 32.0625V5.9375C35 3.9707 33.3203 2.375 31.25 2.375ZM27.4297 14.1609C27.4453 14.3688 27.4453 14.584 27.4453 14.7918C27.4453 21.2266 22.2891 28.641 12.8672 28.641C9.96094 28.641 7.26562 27.8395 5 26.459C5.41406 26.5035 5.8125 26.5184 6.23438 26.5184C8.63281 26.5184 10.8359 25.7465 12.5938 24.4402C10.3438 24.3957 8.45312 22.993 7.80469 21.0633C8.59375 21.1746 9.30469 21.1746 10.1172 20.9742C7.77344 20.5215 6.01562 18.5621 6.01562 16.1945V16.1352C6.69531 16.4988 7.49219 16.7215 8.32812 16.7512C7.62533 16.3071 7.0492 15.7046 6.65115 14.9975C6.25309 14.2904 6.04549 13.5007 6.04688 12.6988C6.04688 11.7934 6.29688 10.9621 6.74219 10.2422C9.26562 13.1961 13.0547 15.1258 17.3047 15.3336C16.5781 12.0309 19.1797 9.35156 22.3047 9.35156C23.7812 9.35156 25.1094 9.93789 26.0469 10.8879C27.2031 10.6801 28.3125 10.2719 29.2969 9.71523C28.9141 10.8434 28.1094 11.7934 27.0469 12.3945C28.0781 12.2906 29.0781 12.016 30 11.6375C29.3047 12.6098 28.4297 13.4707 27.4297 14.1609Z" fill="#3E1818"/>
</svg>
