<?xml version="1.0" encoding="utf-8"?>
<!-- Generator: Adobe Illustrator 15.1.0, SVG Export Plug-In . SVG Version: 6.00 Build 0)  -->
<!DOCTYPE svg PUBLIC "-//W3C//DTD SVG 1.1//EN" "http://www.w3.org/Graphics/SVG/1.1/DTD/svg11.dtd">
<svg version="1.1" id="organization-en" xmlns="http://www.w3.org/2000/svg" xmlns:xlink="http://www.w3.org/1999/xlink" x="0px"
	 y="0px" width="992px" height="970px" viewBox="0 0 992 970" enable-background="new 0 0 992 970" xml:space="preserve">
<filter  y="-50%" x="-50%" width="200%" height="200%" id="drop-shadow" ilterUnits="objectBoundingBox">
	<feGaussianBlur  result="DROP" in="SourceAlpha" stdDeviation="5"></feGaussianBlur>
	<feFlood  result="COLOR" flood-color="#c6c6c6"></feFlood>
	<feComposite  result="SHADOW" in2="DROP" operator="in" in="COLOR"></feComposite>
	<feOffset  dx="3" dy="3" result="DROPSHADOW" in="SHADOW"></feOffset>
	<feMerge>
		<feMergeNode  in="DROPSHADOW"></feMergeNode>
		<feMergeNode  in="SourceGraphic"></feMergeNode>
	</feMerge>
</filter>
<defs>
<style type="text/css">@import url('https://fonts.googleapis.com/css2?family=Merriweather:ital,wght@0,400');</style>
</defs>

<g filter="url(#drop-shadow)">
	<rect x="365.98" y="421" fill="#E6EDCF" width="243" height="38"/>
	<g>
		<polyline fill="none" stroke="#BB4460" stroke-width="2" stroke-miterlimit="10" points="608.98,457.5 608.98,459 607.48,459"/>
		
			<line fill="none" stroke="#BB4460" stroke-width="2" stroke-miterlimit="10" stroke-dasharray="2.9752,1.9835" x1="605.497" y1="459" x2="368.472" y2="459"/>
		<polyline fill="none" stroke="#BB4460" stroke-width="2" stroke-miterlimit="10" points="367.48,459 365.98,459 365.98,457.5"/>
		
			<line fill="none" stroke="#BB4460" stroke-width="2" stroke-miterlimit="10" stroke-dasharray="2.8378,1.8919" x1="365.98" y1="455.608" x2="365.98" y2="423.446"/>
		<polyline fill="none" stroke="#BB4460" stroke-width="2" stroke-miterlimit="10" points="365.98,422.5 365.98,421 367.48,421"/>
		
			<line fill="none" stroke="#BB4460" stroke-width="2" stroke-miterlimit="10" stroke-dasharray="2.9752,1.9835" x1="369.464" y1="421" x2="606.488" y2="421"/>
		<polyline fill="none" stroke="#BB4460" stroke-width="2" stroke-miterlimit="10" points="607.48,421 608.98,421 608.98,422.5"/>
		
			<line fill="none" stroke="#BB4460" stroke-width="2" stroke-miterlimit="10" stroke-dasharray="2.8378,1.8919" x1="608.98" y1="424.391" x2="608.98" y2="456.553"/>
	</g>
</g>
<g>
	<line fill="none" stroke="#BB4460" stroke-width="2" stroke-miterlimit="10" x1="345" y1="255.273" x2="440" y2="255.273"/>
	<line fill="none" stroke="#BB4460" stroke-width="2" stroke-miterlimit="10" x1="676" y1="255.273" x2="581" y2="255.273"/>
	<g>
		<path fill="none" stroke="#BB4460" stroke-width="2" stroke-miterlimit="10" d="M49,572.273H35c-5.5,0-10-4.023-10-9.523v-423
			c0-5.5,4.5-10.477,10-10.477h14"/>
	</g>
	<g>
		<path fill="none" stroke="#BB4460" stroke-width="2" stroke-miterlimit="10" d="M68,908.273c0,0-4.048,0-8.998,0
			S50,904.25,50,898.75v-635c0-5.5,4.052-10.477,9.002-10.477s8.998,0,8.998,0"/>
	</g>
	<line fill="none" stroke="#BB4460" stroke-width="2" stroke-miterlimit="10" x1="118" y1="69.273" x2="118" y2="113.273"/>
	<g>
		<g>
			<line fill="none" stroke="#BB4460" stroke-width="2" stroke-miterlimit="10" x1="341" y1="910.273" x2="342" y2="910.273"/>
			
				<line fill="none" stroke="#BB4460" stroke-width="2" stroke-miterlimit="10" stroke-dasharray="3,2" x1="344" y1="910.273" x2="417" y2="910.273"/>
			<line fill="none" stroke="#BB4460" stroke-width="2" stroke-miterlimit="10" x1="417" y1="910.273" x2="419" y2="910.273"/>
		</g>
	</g>
	<line fill="none" stroke="#BB4460" stroke-width="2" stroke-miterlimit="10" x1="50" y1="840.273" x2="428" y2="840.273"/>
	<line fill="none" stroke="#BB4460" stroke-width="2" stroke-miterlimit="10" x1="50" y1="722.273" x2="164" y2="722.273"/>
	<line fill="none" stroke="#BB4460" stroke-width="2" stroke-miterlimit="10" x1="50" y1="781.273" x2="164" y2="781.273"/>
	<line fill="none" stroke="#BB4460" stroke-width="2" stroke-miterlimit="10" x1="50" y1="354.273" x2="620" y2="354.273"/>
	<line fill="none" stroke="#BB4460" stroke-width="2" stroke-miterlimit="10" x1="49" y1="442.273" x2="116" y2="442.273"/>
	<line fill="none" stroke="#BB4460" stroke-width="2" stroke-miterlimit="10" x1="49" y1="524.273" x2="116" y2="524.273"/>
	<line fill="none" stroke="#BB4460" stroke-width="2" stroke-miterlimit="10" x1="49" y1="620.273" x2="116" y2="620.273"/>
	
		<line fill="none" stroke="#BB4460" stroke-width="2" stroke-miterlimit="10" stroke-dasharray="3,2" x1="344" y1="440.273" x2="366" y2="440.273"/>
	<polyline fill="none" stroke="#BB4460" stroke-width="2" stroke-miterlimit="10" stroke-dasharray="3,2" points="118,543.273 
		118,566.273 167,566.273 	"/>
	<polyline fill="none" stroke="#BB4460" stroke-width="2" stroke-miterlimit="10" stroke-dasharray="3,2" points="118,637.273 
		118,660.273 167,660.273 	"/>
</g>
<g filter="url(#drop-shadow)">
	<path fill="#FAF5F5" d="M596.461,896.75c0,5.5-4.5,10-10,10h-176c-5.5,0-10-4.5-10-10v-116c0-5.5,4.5-10,10-10h176
		c5.5,0,10,4.5,10,10V896.75z"/>
</g>
<g>
	<rect x="414" y="886.273" fill="#E6EDCF" width="168" height="38"/>
	<g>
		<polyline fill="none" stroke="#BB4460" stroke-width="2" stroke-miterlimit="10" points="582,887.5 582,886 580.5,886"/>
		
			<line fill="none" stroke="#BB4460" stroke-width="2" stroke-miterlimit="10" stroke-dasharray="3,2" x1="579" y1="886.273" x2="417" y2="886.273"/>
		<polyline fill="none" stroke="#BB4460" stroke-width="2" stroke-miterlimit="10" points="415.755,886 414.255,886 414.255,887.5 "/>
		
			<line fill="none" stroke="#BB4460" stroke-width="2" stroke-miterlimit="10" stroke-dasharray="3,2" x1="414" y1="889.273" x2="414" y2="921.273"/>
		<polyline fill="none" stroke="#BB4460" stroke-width="2" stroke-miterlimit="10" points="414.255,922.5 414.255,924 415.755,924 "/>
		
			<line fill="none" stroke="#BB4460" stroke-width="2" stroke-miterlimit="10" stroke-dasharray="3,2" x1="418" y1="924.273" x2="580" y2="924.273"/>
		<polyline fill="none" stroke="#BB4460" stroke-width="2" stroke-miterlimit="10" points="580.5,924 582,924 582,922.5"/>
		
			<line fill="none" stroke="#BB4460" stroke-width="2" stroke-miterlimit="10" stroke-dasharray="3,2" x1="582" y1="920.273" x2="582" y2="888.273"/>
	</g>
</g>
<g filter="url(#drop-shadow)">
	<path fill="#F7E6E8" d="M195.175,66.5c0,3.85-3.15,7-7,7h-141c-3.85,0-7-3.15-7-7v-26c0-3.85,3.15-7,7-7h141c3.85,0,7,3.15,7,7
		V66.5z"/>
</g>
<g filter="url(#drop-shadow)">
	<path fill="#F7E6E8" d="M414.022,42c0,3.85-3.15,7-7,7h-176c-3.85,0-7-3.15-7-7V16c0-3.85,3.15-7,7-7h176c3.85,0,7,3.15,7,7V42z"/>
</g>
<g filter="url(#drop-shadow)">
	<path fill="#F7E6E8" d="M414.022,91.5c0,3.85-3.15,7-7,7h-176c-3.85,0-7-3.15-7-7v-26c0-3.85,3.15-7,7-7h176c3.85,0,7,3.15,7,7
		V91.5z"/>
</g>
<g filter="url(#drop-shadow)">
	<path fill="#F7E6E8" d="M195.175,143.5c0,3.85-3.15,7-7,7h-141c-3.85,0-7-3.15-7-7v-26c0-3.85,3.15-7,7-7h141c3.85,0,7,3.15,7,7
		V143.5z"/>
</g>
<g filter="url(#drop-shadow)">
	<rect x="195" y="818.273" fill="#E6EDCF" width="190" height="40"/>
</g>
<g filter="url(#drop-shadow)">
	<path fill="#CDD2EB" d="M344.888,266.75c0,3.85-3.15,7-7,7H72.675c-3.85,0-7-3.15-7-7v-26c0-3.85,3.15-7,7-7h265.212
		c3.85,0,7,3.15,7,7V266.75z"/>
</g>
<g filter="url(#drop-shadow)">
	<path fill="#CDD2EB" d="M344.888,427.75c0-3.85-3.15-7-7-7H72.675c-3.85,0-7,3.15-7,7v26c0,3.85,3.15,7,7,7h265.212
		c3.85,0,7-3.15,7-7V427.75z"/>
</g>
<g filter="url(#drop-shadow)">
	<path fill="#CDD2EB" d="M344.888,510.75c0-3.85-3.15-7-7-7H72.675c-3.85,0-7,3.15-7,7v26c0,3.85,3.15,7,7,7h265.212
		c3.85,0,7-3.15,7-7V510.75z"/>
</g>
<g filter="url(#drop-shadow)">
	<path fill="#CDD2EB" d="M344.888,605.75c0-3.85-3.15-7-7-7H72.675c-3.85,0-7,3.15-7,7v26c0,3.85,3.15,7,7,7h265.212
		c3.85,0,7-3.15,7-7V605.75z"/>
</g>
<g filter="url(#drop-shadow)">
	<path fill="#CDD2EB" d="M344.888,896.75c0-3.85-3.15-7-7-7H72.675c-3.85,0-7,3.15-7,7v26c0,3.85,3.15,7,7,7h265.212
		c3.85,0,7-3.15,7-7V896.75z"/>
</g>
<g filter="url(#drop-shadow)">
	<path fill="#FAF5F5" d="M961,852c0,5.5-4.5,10-10,10H631c-5.5,0-10-4.5-10-10V192c0-5.5,4.5-10,10-10h320c5.5,0,10,4.5,10,10V852z"/>
</g>
<g filter="url(#drop-shadow)">
	<path fill="#FAF5F5" d="M603,310c0,5.5-4.5,10-10,10H373c-5.5,0-10-4.5-10-10V192c0-5.5,4.5-10,10-10h220c5.5,0,10,4.5,10,10V310z"/>
</g>
<g>
	<path fill="#FAE3AC" d="M590,196.273c0,3.866-3.134,7-7,7H383c-3.866,0-7-3.134-7-7v-26c0-3.866,3.134-7,7-7h200
		c3.866,0,7,3.134,7,7V196.273z"/>
</g>
<g>
	<path fill="#FAE3AC" d="M590,215.273c0-3.866-3.134-7-7-7H383c-3.866,0-7,3.134-7,7v26c0,3.866,3.134,7,7,7h200
		c3.866,0,7-3.134,7-7V215.273z"/>
</g>
<g>
	<path fill="#FAE3AC" d="M590,260.273c0-3.866-3.134-7-7-7H383c-3.866,0-7,3.134-7,7v26c0,3.866,3.134,7,7,7h200
		c3.866,0,7-3.134,7-7V260.273z"/>
</g>
<g>
	<path fill="#FAE3AC" d="M590,305.273c0-3.866-3.134-7-7-7H383c-3.866,0-7,3.134-7,7v26c0,3.866,3.134,7,7,7h200
		c3.866,0,7-3.134,7-7V305.273z"/>
</g>
<g>
	<path fill="#F5DED4" d="M946,196.273c0,3.866-3.134,7-7,7H642c-3.866,0-7-3.134-7-7v-26c0-3.866,3.134-7,7-7h297
		c3.866,0,7,3.134,7,7V196.273z"/>
</g>
<g>
	<path fill="#F5DED4" d="M946,215.273c0-3.866-3.134-7-7-7H642c-3.866,0-7,3.134-7,7v26c0,3.866,3.134,7,7,7h297
		c3.866,0,7-3.134,7-7V215.273z"/>
</g>
<g>
	<path fill="#F5DED4" d="M946,260.273c0-3.866-3.134-7-7-7H642c-3.866,0-7,3.134-7,7v26c0,3.866,3.134,7,7,7h297
		c3.866,0,7-3.134,7-7V260.273z"/>
</g>
<g>
	<path fill="#F5DED4" d="M946,305.273c0-3.866-3.134-7-7-7H642c-3.866,0-7,3.134-7,7v26c0,3.866,3.134,7,7,7h297
		c3.866,0,7-3.134,7-7V305.273z"/>
</g>
<g>
	<path fill="#F5DED4" d="M946,350.273c0-3.866-3.134-7-7-7H642c-3.866,0-7,3.134-7,7v26c0,3.866,3.134,7,7,7h297
		c3.866,0,7-3.134,7-7V350.273z"/>
</g>
<g>
	<path fill="#F5DED4" d="M946,395.273c0-3.866-3.134-7-7-7H642c-3.866,0-7,3.134-7,7v26c0,3.866,3.134,7,7,7h297
		c3.866,0,7-3.134,7-7V395.273z"/>
</g>
<g>
	<path fill="#F5DED4" d="M946,440.273c0-3.866-3.134-7-7-7H642c-3.866,0-7,3.134-7,7v26c0,3.866,3.134,7,7,7h297
		c3.866,0,7-3.134,7-7V440.273z"/>
</g>
<g>
	<path fill="#F5DED4" d="M946,485.273c0-3.866-3.134-7-7-7H642c-3.866,0-7,3.134-7,7v26c0,3.866,3.134,7,7,7h297
		c3.866,0,7-3.134,7-7V485.273z"/>
</g>
<g>
	<path fill="#F5DED4" d="M946,530.273c0-3.866-3.134-7-7-7H642c-3.866,0-7,3.134-7,7v26c0,3.866,3.134,7,7,7h297
		c3.866,0,7-3.134,7-7V530.273z"/>
</g>
<g>
	<path fill="#D4DEEB" d="M946,601.273c0,3.866-3.134,7-7,7H642c-3.866,0-7-3.134-7-7v-26c0-3.866,3.134-7,7-7h297
		c3.866,0,7,3.134,7,7V601.273z"/>
</g>
<g>
	<path fill="#D4DEEB" d="M946,620.273c0-3.866-3.134-7-7-7H642c-3.866,0-7,3.134-7,7v26c0,3.866,3.134,7,7,7h297
		c3.866,0,7-3.134,7-7V620.273z"/>
</g>
<g>
	<path fill="#D4DEEB" d="M946,665.273c0-3.866-3.134-7-7-7H642c-3.866,0-7,3.134-7,7v26c0,3.866,3.134,7,7,7h297
		c3.866,0,7-3.134,7-7V665.273z"/>
</g>
<g>
	<path fill="#D4DEEB" d="M946,710.273c0-3.866-3.134-7-7-7H642c-3.866,0-7,3.134-7,7v26c0,3.866,3.134,7,7,7h297
		c3.866,0,7-3.134,7-7V710.273z"/>
</g>
<g>
	<path fill="#D4DEEB" d="M946,755.273c0-3.866-3.134-7-7-7H642c-3.866,0-7,3.134-7,7v26c0,3.866,3.134,7,7,7h297
		c3.866,0,7-3.134,7-7V755.273z"/>
</g>
<g>
	<path fill="#CDDED7" d="M946,826.273c0,3.866-3.134,7-7,7H642c-3.866,0-7-3.134-7-7v-26c0-3.866,3.134-7,7-7h297
		c3.866,0,7,3.134,7,7V826.273z"/>
</g>
<g>
	<path fill="#CDDED7" d="M946,845.273c0-3.866-3.134-7-7-7H642c-3.866,0-7,3.134-7,7v26c0,3.866,3.134,7,7,7h297
		c3.866,0,7-3.134,7-7V845.273z"/>
</g>
<rect x="414" y="751.273" fill="#E6EDCF" width="168" height="40"/>
<rect x="414" y="796.273" fill="#E6EDCF" width="168" height="40"/>
<rect x="414" y="841.273" fill="#E6EDCF" width="168" height="39"/>
<g>
	<text transform="matrix(1 0 0 1 647.7168 180.2295)"><tspan x="0" y="0" fill="#333333" font-family="'Merriweather', Times, serif" font-size="15"><a href="https://www1.ihp.sinica.edu.tw/en/Research/Centers/cultural-and-intellectual-history" target="top">Cultural and Intellectual History </a> </tspan><tspan x="0" y="18" fill="#333333" font-family="'Merriweather', Times, serif" font-size="15"><a href="https://www1.ihp.sinica.edu.tw/en/Research/Centers/cultural-and-intellectual-history" target="top">Research Center</a></tspan></text>
	
		<text transform="matrix(1 0 0 1 647.7168 233.4302)" fill="#333333" font-family="'Merriweather', Times, serif" font-size="15"><a href="https://www1.ihp.sinica.edu.tw/en/Research/Centers/legal-history" target="top">Legal History Research Center</a></text>

	<text transform="matrix(1 0 0 1 647.7168 270.6289)"><tspan x="0" y="0" fill="#333333" font-family="'Merriweather', Times, serif" font-size="15"><a href="https://www1.ihp.sinica.edu.tw/en/Research/Centers/archaeology-of-taiwan-and-southeast-asia" target="top">Archaeology of Taiwan and Southeast </a> </tspan><tspan x="0" y="18" fill="#333333" font-family="'Merriweather', Times, serif" font-size="15"><a href="https://www1.ihp.sinica.edu.tw/en/Research/Centers/archaeology-of-taiwan-and-southeast-asia" target="top">Asia Research Center</a></tspan></text>
	
		<text transform="matrix(1 0 0 1 647.7168 322.8291)" fill="#333333" font-family="'Merriweather', Times, serif" font-size="15"><a href="https://www1.ihp.sinica.edu.tw/en/Research/Centers/images-and-artifacts" target="top">Images and Artifacts Research Center</a></text>

	<text transform="matrix(1 0 0 1 647.7168 360.0278)"><tspan x="0" y="0" fill="#333333" font-family="'Merriweather', Times, serif" font-size="15"><a href="https://www1.ihp.sinica.edu.tw/en/Research/Centers/history-of-health-and-healing" target="top">History of Health and Healing  </a></tspan><tspan x="0" y="18" fill="#333333" font-family="'Merriweather', Times, serif" font-size="15"><a href="https://www1.ihp.sinica.edu.tw/en/Research/Centers/history-of-health-and-healing" target="top">Research Center</a></tspan></text>

	<text transform="matrix(1 0 0 1 647.7168 405.229)"><tspan x="0" y="0" fill="#333333" font-family="'Merriweather', Times, serif" font-size="15"><a href="https://www1.ihp.sinica.edu.tw/en/Research/Centers/custom-religion-and-daily-life" target="top">Custom, Religion, and Daily Life  </a></tspan><tspan x="0" y="18" fill="#333333" font-family="'Merriweather', Times, serif" font-size="15"><a href="https://www1.ihp.sinica.edu.tw/en/Research/Centers/custom-religion-and-daily-life" target="top">Research Center</a></tspan></text>
	
		<text transform="matrix(1 0 0 1 647.7168 458.4292)" fill="#333333" font-family="'Merriweather', Times, serif" font-size="15"><a href="https://www1.ihp.sinica.edu.tw/en/Research/Centers/world-history" target="top">World History Research Center</a></text>
	
		<text transform="matrix(1 0 0 1 647.7168 503.6304)" fill="#333333" font-family="'Merriweather', Times, serif" font-size="15"><a href="https://www1.ihp.sinica.edu.tw/en/Research/Centers/ancient-civilizations" target="top">Ancient Civilizations Research Center</a></text>
	
		<text transform="matrix(1 0 0 1 647.7168 547.8296)" fill="#333333" font-family="'Merriweather', Times, serif" font-size="15"><a href="https://www1.ihp.sinica.edu.tw/en/Research/Centers/digital-humanities" target="top">Digital Humanities Research Center</a></text>
	
		<text transform="matrix(1 0 0 1 647.7168 593.0288)" fill="#333333" font-family="'Merriweather', Times, serif" font-size="15"><a href="https://www1.ihp.sinica.edu.tw/en/Research/Groups/culturalAndAntellectualHistory" target="top">Grand Secretariat Archives Project</a></text>
	
		<text transform="matrix(1 0 0 1 647.7168 638.229)" fill="#333333" font-family="'Merriweather', Times, serif" font-size="15"><a href="https://www1.ihp.sinica.edu.tw/en/Research/Groups/scriptaSinica" target="top">Scripta Sinica Research Group</a></text>
	
		<text transform="matrix(1 0 0 1 647.7168 683.4292)" fill="#333333" font-family="'Merriweather', Times, serif" font-size="15"><a href="https://www1.ihp.sinica.edu.tw/en/Research/Groups/geographical" target="top">GIS Research Group</a></text>
	
		<text transform="matrix(1 0 0 1 647.7168 728.6294)" fill="#333333" font-family="'Merriweather', Times, serif" font-size="15"><a href="https://www1.ihp.sinica.edu.tw/en/Research/Groups/bronzeInscriptions" target="top">Bronze Inscriptions Research Group</a></text>
	
		<text transform="matrix(1 0 0 1 647.7168 772.8296)" fill="#333333" font-family="'Merriweather', Times, serif" font-size="15"><a href="https://www1.ihp.sinica.edu.tw/en/Research/Groups/anyangArchaeologicalSite" target="top">Anyang Research Group</a></text>
	
		<text transform="matrix(1 0 0 1 647.7168 818.0288)" fill="#333333" font-family="'Merriweather', Times, serif" font-size="15">Archaeometry Laboratory</text>
	
		<text transform="matrix(1 0 0 1 647.7168 863.229)" fill="#333333" font-family="'Merriweather', Times, serif" font-size="15">Cultural Relic Preservation Laboratory</text>
	
		<text transform="matrix(1 0 0 1 385.1924 187.2295)" fill="#333333" font-family="'Merriweather', Times, serif" font-size="15"><a href="https://www1.ihp.sinica.edu.tw/en/AboutIHP/Departments" target="top">History Department</a></text>
	
		<text transform="matrix(1 0 0 1 385.1924 232.2295)" fill="#333333" font-family="'Merriweather', Times, serif" font-size="15"><a href="https://www1.ihp.sinica.edu.tw/en/AboutIHP/Departments/archaeology" target="top">Archaeology Department</a></text>
	
		<text transform="matrix(1 0 0 1 385.1924 277.23)" fill="#333333" font-family="'Merriweather', Times, serif" font-size="15"><a href="https://www1.ihp.sinica.edu.tw/en/AboutIHP/Departments/anthropology" target="top">Anthropology Department</a></text>
	
		<text transform="matrix(1 0 0 1 385.1924 322.23)" fill="#333333" font-family="'Merriweather', Times, serif" font-size="15"><a href="https://www1.ihp.sinica.edu.tw/en/AboutIHP/Departments/philology" target="top">Philology Department</a></text>
	
		<text transform="matrix(1 0 0 1 424.6924 776.3804)" fill="#333333" font-family="'Merriweather', Times, serif" font-size="15">General Affairs</text>
	
		<text transform="matrix(1 0 0 1 424.6924 820.9272)" fill="#333333" font-family="'Merriweather', Times, serif" font-size="15">Secretary</text>
	
		<text transform="matrix(1 0 0 1 424.6924 865.6538)" fill="#333333" font-family="'Merriweather', Times, serif" font-size="15">Accounting</text>
	
		<text transform="matrix(1 0 0 1 424.6924 910.5444)" fill="#333333" font-family="'Merriweather', Times, serif" font-size="15">Information Center</text>
	
		<text transform="matrix(1 0 0 1 73.5479 258.229)" fill="#333333" font-family="'Merriweather', Times, serif" font-size="15">Academic Development Committee</text>
	
		<text transform="matrix(1 0 0 1 71.748 445.23)" fill="#333333" font-family="'Merriweather', Times, serif" font-size="15"><a href="https://www1.ihp.sinica.edu.tw/en/Publications/Bulletin2" target="top">Editorial and Publishing Committee</a></text>
	<g>
		
			<text transform="matrix(1 0 0 1 134.5518 528.229)" fill="#333333" font-family="'Merriweather', Times, serif" font-size="15">Library Committee</text>
	</g>
	
		<text transform="matrix(1 0 0 1 113.252 624.229)" fill="#333333" font-family="'Merriweather', Times, serif" font-size="15">IHP Archives Committee</text>
	
		<text transform="matrix(1 0 0 1 89.5977 914.23)" fill="#333333" font-family="'Merriweather', Times, serif" font-size="15">Information Center Committee</text>
	
		<text transform="matrix(1 0 0 1 373.1924 445.23)" fill="#333333" font-family="'Merriweather', Times, serif" font-size="15">Editorial and Publishing Office</text>
	<g>
		
			<text transform="matrix(1 0 0 1 170.7373 569.8501)" fill="#333333" font-family="'Merriweather', Times, serif" font-size="15"><a href="https://www1.ihp.sinica.edu.tw/en/Resource/Library" target="top">Fu Ssu-nien Library</a></text>
	</g>
	<g>
		
			<text transform="matrix(1 0 0 1 170.7373 665.0483)" fill="#333333" font-family="'Merriweather', Times, serif" font-size="15"><a href="https://www1.ihp.sinica.edu.tw/en/Resource/Archives" target="top">IHP Archives</a></text>
	</g>
	
		<text transform="matrix(1 0 0 1 170.7373 726.7593)" fill="#333333" font-family="'Merriweather', Times, serif" font-size="15"><a href="https://www1.ihp.sinica.edu.tw/en/Resource/Museum" target="top">Museum of the IHP</a></text>

	<text transform="matrix(1 0 0 1 170.7373 777.9595)"><tspan x="0" y="0" fill="#333333" font-family="'Merriweather', Times, serif" font-size="15"><a href="https://www1.ihp.sinica.edu.tw/en/Resource/CTA" target="top">Taiwan Archaeological </a></tspan><tspan x="0" y="18" fill="#333333" font-family="'Merriweather', Times, serif" font-size="15"><a href="https://www1.ihp.sinica.edu.tw/en/Resource/CTA" target="top">Studies Building</a></tspan></text>
	<g>
		
			<text transform="matrix(1 0 0 1 203.4434 843.1597)" fill="#333333" font-family="'Merriweather', Times, serif" font-size="15"><a href="https://www1.ihp.sinica.edu.tw/en/People/AdministrativeStaff" target="top">Administrative Support</a></text>
	</g>
	
		<text transform="matrix(1 0 0 1 86.0879 59.2397)" fill="#333333" font-family="'Merriweather', Times, serif" font-size="15"><a href="https://www1.ihp.sinica.edu.tw/en/AboutIHP/Directors" target="top">Director</a></text>
	
		<text transform="matrix(1 0 0 1 57.2285 136.7725)" fill="#333333" font-family="'Merriweather', Times, serif" font-size="15"><a href="https://www1.ihp.sinica.edu.tw/en/AboutIHP/Directors" target="top">Deputy Director</a></text>
	
		<text transform="matrix(1 0 0 1 257.1426 34.5576)" fill="#333333" font-family="'Merriweather', Times, serif" font-size="15">Institute Council</text>
	
		<text transform="matrix(1 0 0 1 243.4922 84.48)" fill="#333333" font-family="'Merriweather', Times, serif" font-size="15"><a href="https://www1.ihp.sinica.edu.tw/en/AboutIHP/AdvisoryBoard" target="top">Advisory Committee</a></text>
</g>
</svg>
