<?xml version="1.0" encoding="utf-8"?>
<!-- Generator: Adobe Illustrator 15.1.0, SVG Export Plug-In . SVG Version: 6.00 Build 0)  -->
<!DOCTYPE svg PUBLIC "-//W3C//DTD SVG 1.1//EN" "http://www.w3.org/Graphics/SVG/1.1/DTD/svg11.dtd">
<svg version="1.1" id="organization-en" xmlns="http://www.w3.org/2000/svg" xmlns:xlink="http://www.w3.org/1999/xlink" x="0px"
	 y="0px" width="366px" height="1806px" viewBox="0 0 366 1806" enable-background="new 0 0 366 1806" xml:space="preserve">
<filter  y="-50%" x="-50%" height="200%" width="200%" id="drop-shadow" ilterUnits="objectBoundingBox">
	<feGaussianBlur  result="DROP" in="SourceAlpha" stdDeviation="5"></feGaussianBlur>
	<feFlood  result="COLOR" flood-color="#c6c6c6"></feFlood>
	<feComposite  result="SHADOW" operator="in" in="COLOR" in2="DROP"></feComposite>
	<feOffset  result="DROPSHADOW" in="SHADOW" dx="3" dy="3"></feOffset>
	<feMerge>
		<feMergeNode  in="DROPSHADOW"></feMergeNode>
		<feMergeNode  in="SourceGraphic"></feMergeNode>
	</feMerge>
</filter>
<defs>
<style type="text/css">@import url('https://fonts.googleapis.com/css2?family=Merriweather:ital,wght@0,400');</style>
</defs>

<line fill="none" stroke="#BB4460" stroke-width="2" stroke-miterlimit="10" x1="22" y1="722" x2="51" y2="722"/>
<line fill="none" stroke="#BB4460" stroke-width="2" stroke-miterlimit="10" x1="167" y1="205" x2="167" y2="431"/>
<line fill="none" stroke="#BB4460" stroke-width="2" stroke-miterlimit="10" x1="222" y1="1537" x2="222" y2="1568"/>
<g>
	<path fill="none" stroke="#BB4460" stroke-width="2" stroke-miterlimit="10" d="M22,1055c0,0-3.825,0-8.5,0s-8.5-4.523-8.5-10.023
		v-907c0-5.5,3.825-9.977,8.5-9.977s8.5,0,8.5,0"/>
</g>
<g>
	<path fill="none" stroke="#BB4460" stroke-width="2" stroke-miterlimit="10" d="M39,1753c0,0-4.001,0-8.5,0s-8.5-4.5-8.5-10V200
		c0-5.5,4.001-10,8.5-10s8.5,0,8.5,0"/>
</g>
<line fill="none" stroke="#BB4460" stroke-width="2" stroke-miterlimit="10" x1="90" y1="69" x2="90" y2="113"/>
<g>
	<g>
		<line fill="none" stroke="#BB4460" stroke-width="2" stroke-miterlimit="10" x1="270" y1="1750" x2="272" y2="1750"/>
		
			<line fill="none" stroke="#BB4460" stroke-width="2" stroke-miterlimit="10" stroke-dasharray="3,2" x1="273" y1="1750" x2="316" y2="1750"/>
		<polyline fill="none" stroke="#BB4460" stroke-width="2" stroke-miterlimit="10" points="316.505,1750 318.005,1750 
			318.005,1748.5 		"/>
		
			<line fill="none" stroke="#BB4460" stroke-width="2" stroke-miterlimit="10" stroke-dasharray="3,2" x1="318" y1="1747" x2="318" y2="1714"/>
		<line fill="none" stroke="#BB4460" stroke-width="2" stroke-miterlimit="10" x1="318" y1="1714" x2="318" y2="1712"/>
	</g>
</g>
<line fill="none" stroke="#BB4460" stroke-width="2" stroke-miterlimit="10" x1="22" y1="1525" x2="136" y2="1525"/>
<line fill="none" stroke="#BB4460" stroke-width="2" stroke-miterlimit="10" x1="23" y1="1389" x2="137" y2="1389"/>
<line fill="none" stroke="#BB4460" stroke-width="2" stroke-miterlimit="10" x1="23" y1="1448" x2="137" y2="1448"/>
<line fill="none" stroke="#BB4460" stroke-width="2" stroke-miterlimit="10" x1="22" y1="1086" x2="89" y2="1086"/>
<line fill="none" stroke="#BB4460" stroke-width="2" stroke-miterlimit="10" x1="22" y1="1191" x2="89" y2="1191"/>
<line fill="none" stroke="#BB4460" stroke-width="2" stroke-miterlimit="10" x1="22" y1="1287" x2="89" y2="1287"/>
<polyline fill="none" stroke="#BB4460" stroke-width="2" stroke-miterlimit="10" stroke-dasharray="3,2" points="91,1210 91,1233 
	140,1233 "/>
<polyline fill="none" stroke="#BB4460" stroke-width="2" stroke-miterlimit="10" stroke-dasharray="3,2" points="91,1102 91,1128 
	140,1128 "/>
<polyline fill="none" stroke="#BB4460" stroke-width="2" stroke-miterlimit="10" stroke-dasharray="3,2" points="91,1304 91,1327 
	140,1327 "/>
<g filter="url(#drop-shadow)">
	<rect x="137" y="1112" fill="#E6EDCF" width="214" height="32"/>
	<g>
		<polyline fill="none" stroke="#BB4460" stroke-width="2" stroke-miterlimit="10" points="351,1142.5 351,1144 349.5,1144 		"/>
		
			<line fill="none" stroke="#BB4460" stroke-width="2" stroke-miterlimit="10" stroke-dasharray="2.9858,1.9906" x1="347.51" y1="1144" x2="139.495" y2="1144"/>
		<polyline fill="none" stroke="#BB4460" stroke-width="2" stroke-miterlimit="10" points="138.5,1144 137,1144 137,1142.5 		"/>
		
			<line fill="none" stroke="#BB4460" stroke-width="2" stroke-miterlimit="10" stroke-dasharray="3.2222,2.1481" x1="137" y1="1140.352" x2="137" y2="1114.574"/>
		<polyline fill="none" stroke="#BB4460" stroke-width="2" stroke-miterlimit="10" points="137,1113.5 137,1112 138.5,1112 		"/>
		
			<line fill="none" stroke="#BB4460" stroke-width="2" stroke-miterlimit="10" stroke-dasharray="2.9858,1.9906" x1="140.49" y1="1112" x2="348.505" y2="1112"/>
		<polyline fill="none" stroke="#BB4460" stroke-width="2" stroke-miterlimit="10" points="349.5,1112 351,1112 351,1113.5 		"/>
		
			<line fill="none" stroke="#BB4460" stroke-width="2" stroke-miterlimit="10" stroke-dasharray="3.2222,2.1481" x1="351" y1="1115.648" x2="351" y2="1141.426"/>
	</g>
</g>
<g filter="url(#drop-shadow)">
	<path fill="#FAF5F5" d="M352,1695c0,5.5-4.5,10-10,10H184c-5.5,0-10-4.5-10-10v-114c0-5.5,4.5-10,10-10h158c5.5,0,10,4.5,10,10
		V1695z"/>
</g>
<g>
	<rect x="188" y="1682" fill="#E6EDCF" width="148" height="32"/>
	<g>
		<polyline fill="none" stroke="#BB4460" stroke-width="2" stroke-miterlimit="10" points="336,1683.773 336,1682.273 
			334.5,1682.273 		"/>
		
			<line fill="none" stroke="#BB4460" stroke-width="2" stroke-miterlimit="10" stroke-dasharray="3,2" x1="333" y1="1682" x2="190" y2="1682"/>
		<polyline fill="none" stroke="#BB4460" stroke-width="2" stroke-miterlimit="10" points="189.5,1682.273 188,1682.273 
			188,1683.773 		"/>
		
			<line fill="none" stroke="#BB4460" stroke-width="2" stroke-miterlimit="10" stroke-dasharray="3,2" x1="188" y1="1686" x2="188" y2="1712"/>
		<polyline fill="none" stroke="#BB4460" stroke-width="2" stroke-miterlimit="10" points="188,1712.773 188,1714.273 
			189.5,1714.273 		"/>
		
			<line fill="none" stroke="#BB4460" stroke-width="2" stroke-miterlimit="10" stroke-dasharray="3,2" x1="191" y1="1714" x2="334" y2="1714"/>
		<polyline fill="none" stroke="#BB4460" stroke-width="2" stroke-miterlimit="10" points="334.5,1714.273 336,1714.273 
			336,1712.773 		"/>
		
			<line fill="none" stroke="#BB4460" stroke-width="2" stroke-miterlimit="10" stroke-dasharray="3,2" x1="336" y1="1711" x2="336" y2="1685"/>
	</g>
</g>
<g filter="url(#drop-shadow)">
	<path fill="#FAF5F5" d="M352,1018.227c0,5.5-4.5,10-10,10H60c-5.5,0-10-4.5-10-10v-595c0-5.5,4.5-10,10-10h282c5.5,0,10,4.5,10,10
		V1018.227z"/>
</g>
<g filter="url(#drop-shadow)">
	<path fill="#FAF5F5" d="M284,362.727c0,5.5-4.5,10-10,10H60c-5.5,0-10-4.5-10-10v-110c0-5.5,4.5-10,10-10h214c5.5,0,10,4.5,10,10
		V362.727z"/>
</g>
<g>
	<path fill="#F5DED4" d="M339,429c0,3.866-3.134,7-7,7H72c-3.866,0-7-3.134-7-7v-20c0-3.866,3.134-7,7-7h260c3.866,0,7,3.134,7,7
		V429z M339,449c0-3.866-3.134-7-7-7H72c-3.866,0-7,3.134-7,7v20c0,3.866,3.134,7,7,7h260c3.866,0,7-3.134,7-7V449z M339,489
		c0-3.866-3.134-7-7-7H72c-3.866,0-7,3.134-7,7v20c0,3.866,3.134,7,7,7h260c3.866,0,7-3.134,7-7V489z M339,530c0-3.866-3.134-7-7-7
		H72c-3.866,0-7,3.134-7,7v20c0,3.866,3.134,7,7,7h260c3.866,0,7-3.134,7-7V530z M339,570c0-3.866-3.134-7-7-7H72
		c-3.866,0-7,3.134-7,7v20c0,3.866,3.134,7,7,7h260c3.866,0,7-3.134,7-7V570z M339,610c0-3.866-3.134-7-7-7H72c-3.866,0-7,3.134-7,7
		v20c0,3.866,3.134,7,7,7h260c3.866,0,7-3.134,7-7V610z M339,650c0-3.866-3.134-7-7-7H72c-3.866,0-7,3.134-7,7v20
		c0,3.866,3.134,7,7,7h260c3.866,0,7-3.134,7-7V650z M339,690c0-3.866-3.134-7-7-7H72c-3.866,0-7,3.134-7,7v20c0,3.866,3.134,7,7,7
		h260c3.866,0,7-3.134,7-7V690z M339,731c0-3.866-3.134-7-7-7H72c-3.866,0-7,3.134-7,7v20c0,3.866,3.134,7,7,7h260
		c3.866,0,7-3.134,7-7V731z"/>
</g>
<g>
	<path fill="#D4DEEB" d="M339,791c0,3.866-3.134,7-7,7H72c-3.866,0-7-3.134-7-7v-20c0-3.866,3.134-7,7-7h260c3.866,0,7,3.134,7,7
		V791z M339,811c0-3.866-3.134-7-7-7H72c-3.866,0-7,3.134-7,7v20c0,3.866,3.134,7,7,7h260c3.866,0,7-3.134,7-7V811z M339,851
		c0-3.866-3.134-7-7-7H72c-3.866,0-7,3.134-7,7v20c0,3.866,3.134,7,7,7h260c3.866,0,7-3.134,7-7V851z M339,891c0-3.866-3.134-7-7-7
		H72c-3.866,0-7,3.134-7,7v20c0,3.866,3.134,7,7,7h260c3.866,0,7-3.134,7-7V891z M339,932c0-3.866-3.134-7-7-7H72
		c-3.866,0-7,3.134-7,7v20c0,3.866,3.134,7,7,7h260c3.866,0,7-3.134,7-7V932z"/>
</g>
<g>
	<path fill="#CDDED7" d="M339,992c0,3.866-3.134,7-7,7H72c-3.866,0-7-3.134-7-7v-20c0-3.866,3.134-7,7-7h260c3.866,0,7,3.134,7,7
		V992z M339,1012c0-3.866-3.134-7-7-7H72c-3.866,0-7,3.134-7,7v20c0,3.866,3.134,7,7,7h260c3.866,0,7-3.134,7-7V1012z"/>
</g>
<g filter="url(#drop-shadow)">
	<path fill="#F7E6E8" d="M156,63.227c0,3.85-3.15,7-7,7H28c-3.85,0-7-3.15-7-7v-22c0-3.85,3.15-7,7-7h121c3.85,0,7,3.15,7,7V63.227z
		"/>
</g>
<g filter="url(#drop-shadow)">
	<path fill="#F7E6E8" d="M353,38c0,3.85-3.15,7-7,7H190c-3.85,0-7-3.15-7-7V16c0-3.85,3.15-7,7-7h156c3.85,0,7,3.15,7,7V38z"/>
</g>
<g filter="url(#drop-shadow)">
	<path fill="#F7E6E8" d="M353,83.227c0,3.85-3.15,7-7,7H190c-3.85,0-7-3.15-7-7v-22c0-3.85,3.15-7,7-7h156c3.85,0,7,3.15,7,7V83.227
		z"/>
</g>
<g filter="url(#drop-shadow)">
	<path fill="#F7E6E8" d="M156,140.227c0,3.85-3.15,7-7,7H28c-3.85,0-7-3.15-7-7v-22c0-3.85,3.15-7,7-7h121c3.85,0,7,3.15,7,7
		V140.227z"/>
</g>
<g filter="url(#drop-shadow)">
	<rect x="137" y="1506" fill="#E6EDCF" width="170" height="34"/>
</g>
<g filter="url(#drop-shadow)">
	<path fill="#CDD2EB" d="M291.676,202.727c0,3.85-3.15,7-7,7h-242c-3.85,0-7-3.15-7-7v-22c0-3.85,3.15-7,7-7h242c3.85,0,7,3.15,7,7
		V202.727z"/>
</g>
<g filter="url(#drop-shadow)">
	<path fill="#CDD2EB" d="M291.676,1074c0-3.85-3.15-7-7-7h-242c-3.85,0-7,3.15-7,7v20c0,3.85,3.15,7,7,7h242c3.85,0,7-3.15,7-7V1074
		z"/>
</g>
<g filter="url(#drop-shadow)">
	<path fill="#CDD2EB" d="M291.676,1180c0-3.85-3.15-7-7-7h-242c-3.85,0-7,3.15-7,7v20c0,3.85,3.15,7,7,7h242c3.85,0,7-3.15,7-7V1180
		z"/>
</g>
<g filter="url(#drop-shadow)">
	<path fill="#CDD2EB" d="M291.676,1275c0-3.85-3.15-7-7-7h-242c-3.85,0-7,3.15-7,7v20c0,3.85,3.15,7,7,7h242c3.85,0,7-3.15,7-7V1275
		z"/>
</g>
<g filter="url(#drop-shadow)">
	<path fill="#CDD2EB" d="M291.676,1742c0-3.85-3.15-7-7-7h-242c-3.85,0-7,3.15-7,7v20c0,3.85,3.15,7,7,7h242c3.85,0,7-3.15,7-7V1742
		z"/>
</g>
<g>
	<path fill="#FAE3AC" d="M269,258c0,3.866-3.134,7-7,7H72c-3.866,0-7-3.134-7-7v-20c0-3.866,3.134-7,7-7h190c3.866,0,7,3.134,7,7
		V258z M269,278c0-3.866-3.134-7-7-7H72c-3.866,0-7,3.134-7,7v20c0,3.866,3.134,7,7,7h190c3.866,0,7-3.134,7-7V278z M269,318
		c0-3.866-3.134-7-7-7H72c-3.866,0-7,3.134-7,7v20c0,3.866,3.134,7,7,7h190c3.866,0,7-3.134,7-7V318z M269,358c0-3.866-3.134-7-7-7
		H72c-3.866,0-7,3.134-7,7v20c0,3.866,3.134,7,7,7h190c3.866,0,7-3.134,7-7V358z"/>
</g>
<rect x="188" y="1561" fill="#E6EDCF" width="148" height="34"/>
<rect x="188" y="1601" fill="#E6EDCF" width="148" height="34"/>
<rect x="188" y="1641" fill="#E6EDCF" width="148" height="34"/>
<text transform="matrix(1 0 0 1 78.8594 417.4404)"><tspan x="0" y="0" fill="#333333" font-family="'Merriweather', Times, serif" font-size="13"><a href="https://www1.ihp.sinica.edu.tw/en/Research/Centers/cultural-and-intellectual-history" target="top">Cultural and Intellectual History </a></tspan><tspan x="0" y="15.6" fill="#333333" font-family="'Merriweather', Times, serif" font-size="13"><a href="https://www1.ihp.sinica.edu.tw/en/Research/Centers/cultural-and-intellectual-history" target="top">Research Center</a></tspan></text>

<text transform="matrix(1 0 0 1 78.8594 463.4404)" fill="#333333" font-family="'Merriweather', Times, serif" font-size="13"><a href="https://www1.ihp.sinica.edu.tw/en/Research/Centers/legal-history" target="top">Legal History Research Center</a></text>

<text transform="matrix(1 0 0 1 78.8594 496.4395)"><tspan x="0" y="0" fill="#333333" font-family="'Merriweather', Times, serif" font-size="13"><a href="https://www1.ihp.sinica.edu.tw/en/Research/Centers/archaeology-of-taiwan-and-southeast-asia" target="top">Archaeology of Taiwan and Southeast </a></tspan><tspan x="0" y="15.601" fill="#333333" font-family="'Merriweather', Times, serif" font-size="13"><a href="https://www1.ihp.sinica.edu.tw/en/Research/Centers/archaeology-of-taiwan-and-southeast-asia" target="top">Asia Research Center</a></tspan></text>

<text transform="matrix(1 0 0 1 78.8594 544.4395)" fill="#333333" font-family="'Merriweather', Times, serif" font-size="13"><a href="https://www1.ihp.sinica.edu.tw/en/Research/Centers/images-and-artifacts" target="top">Images and Artifacts Research Center</a></text>

<text transform="matrix(1 0 0 1 78.8594 576.4404)"><tspan x="0" y="0" fill="#333333" font-family="'Merriweather', Times, serif" font-size="13"><a href="https://www1.ihp.sinica.edu.tw/en/Research/Centers/history-of-health-and-healing" target="top">History of Health and Healing  </a></tspan><tspan x="0" y="15.6" fill="#333333" font-family="'Merriweather', Times, serif" font-size="13"><a href="https://www1.ihp.sinica.edu.tw/en/Research/Centers/history-of-health-and-healing" target="top">Research Center</a></tspan></text>

<text transform="matrix(1 0 0 1 78.8594 616.4404)"><tspan x="0" y="0" fill="#333333" font-family="'Merriweather', Times, serif" font-size="13"><a href="https://www1.ihp.sinica.edu.tw/en/Research/Centers/custom-religion-and-daily-life" target="top">Custom, Religion, and Daily Life  </a></tspan><tspan x="0" y="15.6" fill="#333333" font-family="'Merriweather', Times, serif" font-size="13"><a href="https://www1.ihp.sinica.edu.tw/en/Research/Centers/custom-religion-and-daily-life" target="top">Research Center</a></tspan></text>

<text transform="matrix(1 0 0 1 78.8594 665.4404)">
	<tspan x="0" y="0" fill="#333333" font-family="'Merriweather', Times, serif" font-size="13"><a href="https://www1.ihp.sinica.edu.tw/en/Research/Centers/world-history" target="top">World History Research Center</a></tspan>

	<tspan x="0" y="40.2" fill="#333333" font-family="'Merriweather', Times, serif" font-size="13"><a href="https://www1.ihp.sinica.edu.tw/en/Research/Centers/ancient-civilizations" target="top">Ancient Civilizations Research Center</a></tspan>

	<tspan x="0" y="80.4" fill="#333333" font-family="'Merriweather', Times, serif" font-size="13"><a href="https://www1.ihp.sinica.edu.tw/en/Research/Centers/digital-humanities" target="top">Digital Humanities Research Center</a></tspan>

	<tspan x="0" y="120.6" fill="#333333" font-family="'Merriweather', Times, serif" font-size="13"><a href="https://www1.ihp.sinica.edu.tw/en/Research/Groups/culturalAndAntellectualHistory" target="top">Grand Secretariat Archives Project</a></tspan>

	<tspan x="0" y="160.8" fill="#333333" font-family="'Merriweather', Times, serif" font-size="13"><a href="https://www1.ihp.sinica.edu.tw/en/Research/Groups/scriptaSinica" target="top">Scripta Sinica Research Group</a></tspan>

	<tspan x="0" y="201" fill="#333333" font-family="'Merriweather', Times, serif" font-size="13"><a href="https://www1.ihp.sinica.edu.tw/en/Research/Groups/geographical" target="top">GIS Research Group</a></tspan>

	<tspan x="0" y="241.2" fill="#333333" font-family="'Merriweather', Times, serif" font-size="13"><a href="https://www1.ihp.sinica.edu.tw/en/Research/Groups/bronzeInscriptions" target="top">Bronze Inscriptions Research Group</a></tspan>

	<tspan x="0" y="281.4" fill="#333333" font-family="'Merriweather', Times, serif" font-size="13"><a href="https://www1.ihp.sinica.edu.tw/en/Research/Groups/anyangArchaeologicalSite" target="top">Anyang Research Group</a></tspan>

	<tspan x="0" y="321.6" fill="#333333" font-family="'Merriweather', Times, serif" font-size="13">Archaeometry Laboratory</tspan>

	<tspan x="0" y="361.8" fill="#333333" font-family="'Merriweather', Times, serif" font-size="13">Cultural Relic Preservation Laboratory</tspan>
</text>


<text transform="matrix(1 0 0 1 78.8594 253.2905)">
	<tspan x="0" y="0" fill="#333333" font-family="'Merriweather', Times, serif" font-size="13"><a href="https://www1.ihp.sinica.edu.tw/en/AboutIHP/Departments" target="top">History Department</a></tspan>

	<tspan x="0" y="39.6" fill="#333333" font-family="'Merriweather', Times, serif" font-size="13"><a href="https://www1.ihp.sinica.edu.tw/en/AboutIHP/Departments/archaeology" target="top">Archaeology Department</a></tspan>

	<tspan x="0" y="79.2" fill="#333333" font-family="'Merriweather', Times, serif" font-size="13"><a href="https://www1.ihp.sinica.edu.tw/en/AboutIHP/Departments/anthropology" target="top">Anthropology Department</a></tspan>

	<tspan x="0" y="118.8" fill="#333333" font-family="'Merriweather', Times, serif" font-size="13"><a href="https://www1.ihp.sinica.edu.tw/en/AboutIHP/Departments/philology" target="top">Philology Department</a></tspan>
</text>

<text transform="matrix(1 0 0 1 199.1377 1584.3408)">
	<tspan x="0" y="0" fill="#333333" font-family="'Merriweather', Times, serif" font-size="13">General Affairs</tspan>
	<tspan x="0" y="39.6" fill="#333333" font-family="'Merriweather', Times, serif" font-size="13">Secretary</tspan>
	<tspan x="0" y="79.2" fill="#333333" font-family="'Merriweather', Times, serif" font-size="13">Accounting</tspan>
	<tspan x="0" y="118.8" fill="#333333" font-family="'Merriweather', Times, serif" font-size="13">Information Center</tspan>
</text>

<text transform="matrix(1 0 0 1 145.1494 1132.7139)" fill="#333333" font-family="'Merriweather', Times, serif" font-size="13">Editorial and Publishing Office </text>

<text transform="matrix(1 0 0 1 50.3066 197.2061)" fill="#333333" font-family="'Merriweather', Times, serif" font-size="13">Academic Development Committee</text>

<text transform="matrix(1 0 0 1 66.3887 57.9668)" fill="#333333" font-family="'Merriweather', Times, serif" font-size="13"><a href="https://www1.ihp.sinica.edu.tw/en/AboutIHP/Directors" target="top">Director</a></text>
<text transform="matrix(1 0 0 1 43.9873 135.4995)" fill="#333333" font-family="'Merriweather', Times, serif" font-size="13"><a href="https://www1.ihp.sinica.edu.tw/en/AboutIHP/Directors" target="top">Deputy Director</a></text>
<text transform="matrix(1 0 0 1 222.4912 32.5576)" fill="#333333" font-family="'Merriweather', Times, serif" font-size="13">Institute Council</text>
<text transform="matrix(1 0 0 1 210.583 78.207)" fill="#333333" font-family="'Merriweather', Times, serif" font-size="13"><a href="https://www1.ihp.sinica.edu.tw/en/AboutIHP/AdvisoryBoard" target="top">Advisory Committee</a></text>
<text transform="matrix(1 0 0 1 50.0176 1089.4736)" fill="#333333" font-family="'Merriweather', Times, serif" font-size="13"><a href="https://www1.ihp.sinica.edu.tw/en/Publications/Bulletin2" target="top">Editorial and Publishing Committee</a></text>

<g>
	<text transform="matrix(1 0 0 1 111.083 1195.4736)" fill="#333333" font-family="'Merriweather', Times, serif" font-size="13">Library Committee</text>
</g>

<text transform="matrix(1 0 0 1 93.3857 1291.4736)" fill="#333333" font-family="'Merriweather', Times, serif" font-size="13">IHP Archives Committee</text>

<text transform="matrix(1 0 0 1 65.1191 1757.5645)" fill="#333333" font-family="'Merriweather', Times, serif" font-size="13">Information Center Committee</text>

<g>
	<text transform="matrix(1 0 0 1 145.0703 1237.0947)" fill="#333333" font-family="'Merriweather', Times, serif" font-size="13"><a href="https://www1.ihp.sinica.edu.tw/en/Resource/Library" target="top">Fu Ssu-nien Library</a></text>
</g>

<g>
	<text transform="matrix(1 0 0 1 145.0703 1332.293)" fill="#333333" font-family="'Merriweather', Times, serif" font-size="13"><a href="https://www1.ihp.sinica.edu.tw/en/Resource/Archives" target="top">IHP Archives</a></text>
</g>

<text transform="matrix(1 0 0 1 145.0703 1394.0039)" fill="#333333" font-family="'Merriweather', Times, serif" font-size="13"><a href="https://www1.ihp.sinica.edu.tw/en/Resource/Museum" target="top">Museum of the IHP</a></text>

<text transform="matrix(1 0 0 1 145.0703 1445.2041)"><tspan x="0" y="0" fill="#333333" font-family="'Merriweather', Times, serif" font-size="13"><a href="https://www1.ihp.sinica.edu.tw/en/Resource/CTA" target="top">Taiwan Archaeological </a></tspan><tspan x="0" y="15.6" fill="#333333" font-family="'Merriweather', Times, serif" font-size="13"><a href="https://www1.ihp.sinica.edu.tw/en/Resource/CTA" target="top">Studies Building</a></tspan></text>
<g>
	<text transform="matrix(1 0 0 1 146 1527.4043)" fill="#333333" font-family="'Merriweather', Times, serif" font-size="13"><a href="https://www1.ihp.sinica.edu.tw/en/People/AdministrativeStaff" target="top">Administrative Support</a></text>
</g>
</svg>
