<?xml version="1.0" encoding="utf-8"?>
<!-- Generator: Adobe Illustrator 15.1.0, SVG Export Plug-In . SVG Version: 6.00 Build 0)  -->
<!DOCTYPE svg PUBLIC "-//W3C//DTD SVG 1.1//EN" "http://www.w3.org/Graphics/SVG/1.1/DTD/svg11.dtd">
<svg version="1.1" id="organization" xmlns="http://www.w3.org/2000/svg" xmlns:xlink="http://www.w3.org/1999/xlink" x="0px"
	 y="0px" width="366px" height="1730px" viewBox="0 0 366 1730" enable-background="new 0 0 366 1730" xml:space="preserve">
<filter  y="-50%" x="-50%" width="200%" height="200%" id="drop-shadow" ilterUnits="objectBoundingBox">
	<feGaussianBlur  result="DROP" in="SourceAlpha" stdDeviation="5"></feGaussianBlur>
	<feFlood  result="COLOR" flood-color="#c6c6c6"></feFlood>
	<feComposite  result="SHADOW" operator="in" in="COLOR" in2="DROP"></feComposite>
	<feOffset  result="DROPSHADOW" in="SHADOW" dx="3" dy="3"></feOffset>
	<feMerge>
		<feMergeNode  in="DROPSHADOW"></feMergeNode>
		<feMergeNode  in="SourceGraphic"></feMergeNode>
	</feMerge>
</filter>

<!--載入字體-->
<defs>
<style type="text/css">@import url('https://fonts.googleapis.com/css2?family=Merriweather:ital,wght@0,400');</style>
</defs>

<line fill="none" stroke="#BB4460" stroke-width="2" stroke-miterlimit="10" x1="22" y1="722" x2="51" y2="722"/>
<line fill="none" stroke="#BB4460" stroke-width="2" stroke-miterlimit="10" x1="167" y1="205" x2="167" y2="431"/>
<line fill="none" stroke="#BB4460" stroke-width="2" stroke-miterlimit="10" x1="222" y1="1457" x2="222" y2="1488"/>
<g>
	<path fill="none" stroke="#BB4460" stroke-width="2" stroke-miterlimit="10" d="M22,1055c0,0-3.825,0-8.5,0s-8.5-4.523-8.5-10.023
		v-907c0-5.5,3.825-9.977,8.5-9.977s8.5,0,8.5,0"/>
</g>
<g>
	<path fill="none" stroke="#BB4460" stroke-width="2" stroke-miterlimit="10" d="M39,1670c0,0-4.001,0-8.5,0s-8.5-4.5-8.5-10V200
		c0-5.5,4.001-10,8.5-10s8.5,0,8.5,0"/>
</g>
<line fill="none" stroke="#BB4460" stroke-width="2" stroke-miterlimit="10" x1="90" y1="69" x2="90" y2="113"/>
<g>
	<g>
		<line fill="none" stroke="#BB4460" stroke-width="2" stroke-miterlimit="10" x1="270" y1="1670" x2="272" y2="1670"/>
		
			<line fill="none" stroke="#BB4460" stroke-width="2" stroke-miterlimit="10" stroke-dasharray="3,2" x1="273" y1="1670" x2="316" y2="1670"/>
		<polyline fill="none" stroke="#BB4460" stroke-width="2" stroke-miterlimit="10" points="316.505,1670 318.005,1670 
			318.005,1668.5 		"/>
		
			<line fill="none" stroke="#BB4460" stroke-width="2" stroke-miterlimit="10" stroke-dasharray="3,2" x1="318" y1="1667" x2="318" y2="1634"/>
		<line fill="none" stroke="#BB4460" stroke-width="2" stroke-miterlimit="10" x1="318" y1="1634" x2="318" y2="1632"/>
	</g>
</g>
<line fill="none" stroke="#BB4460" stroke-width="2" stroke-miterlimit="10" x1="22" y1="1442" x2="136" y2="1442"/>
<line fill="none" stroke="#BB4460" stroke-width="2" stroke-miterlimit="10" x1="23" y1="1320" x2="137" y2="1320"/>
<line fill="none" stroke="#BB4460" stroke-width="2" stroke-miterlimit="10" x1="23" y1="1378" x2="137" y2="1378"/>
<line fill="none" stroke="#BB4460" stroke-width="2" stroke-miterlimit="10" x1="22" y1="1044" x2="89" y2="1044"/>
<line fill="none" stroke="#BB4460" stroke-width="2" stroke-miterlimit="10" x1="22" y1="1145" x2="89" y2="1145"/>
<line fill="none" stroke="#BB4460" stroke-width="2" stroke-miterlimit="10" x1="22" y1="1237" x2="89" y2="1237"/>
<polyline fill="none" stroke="#BB4460" stroke-width="2" stroke-miterlimit="10" stroke-dasharray="3,2" points="91,1164 91,1187 
	140,1187 "/>
<polyline fill="none" stroke="#BB4460" stroke-width="2" stroke-miterlimit="10" stroke-dasharray="3,2" points="91,1060 91,1086 
	140,1086 "/>
<polyline fill="none" stroke="#BB4460" stroke-width="2" stroke-miterlimit="10" stroke-dasharray="3,2" points="91,1254 91,1277 
	140,1277 "/>
<g filter="url(#drop-shadow)">
	<rect x="137" y="1070" fill="#E6EDCF" width="214" height="32"/>
	<g>
		<polyline fill="none" stroke="#BB4460" stroke-width="2" stroke-miterlimit="10" points="351,1100.5 351,1102 349.5,1102 		"/>
		
			<line fill="none" stroke="#BB4460" stroke-width="2" stroke-miterlimit="10" stroke-dasharray="2.9858,1.9906" x1="347.51" y1="1102" x2="139.495" y2="1102"/>
		<polyline fill="none" stroke="#BB4460" stroke-width="2" stroke-miterlimit="10" points="138.5,1102 137,1102 137,1100.5 		"/>
		
			<line fill="none" stroke="#BB4460" stroke-width="2" stroke-miterlimit="10" stroke-dasharray="3.2222,2.1481" x1="137" y1="1098.352" x2="137" y2="1072.574"/>
		<polyline fill="none" stroke="#BB4460" stroke-width="2" stroke-miterlimit="10" points="137,1071.5 137,1070 138.5,1070 		"/>
		
			<line fill="none" stroke="#BB4460" stroke-width="2" stroke-miterlimit="10" stroke-dasharray="2.9858,1.9906" x1="140.49" y1="1070" x2="348.505" y2="1070"/>
		<polyline fill="none" stroke="#BB4460" stroke-width="2" stroke-miterlimit="10" points="349.5,1070 351,1070 351,1071.5 		"/>
		
			<line fill="none" stroke="#BB4460" stroke-width="2" stroke-miterlimit="10" stroke-dasharray="3.2222,2.1481" x1="351" y1="1073.648" x2="351" y2="1099.426"/>
	</g>
</g>
<g filter="url(#drop-shadow)">
	<path fill="#FAF5F5" d="M352,1615c0,5.5-4.5,10-10,10H184c-5.5,0-10-4.5-10-10v-114c0-5.5,4.5-10,10-10h158c5.5,0,10,4.5,10,10
		V1615z"/>
</g>
<g filter="url(#drop-shadow)">
	<path fill="#FAF5F5" d="M352,972.227c0,5.5-4.5,10-10,10H60c-5.5,0-10-4.5-10-10v-549c0-5.5,4.5-10,10-10h282c5.5,0,10,4.5,10,10
		V972.227z"/>
</g>
<g filter="url(#drop-shadow)">
	<path fill="#FAF5F5" d="M284,362.727c0,5.5-4.5,10-10,10H60c-5.5,0-10-4.5-10-10v-110c0-5.5,4.5-10,10-10h214c5.5,0,10,4.5,10,10
		V362.727z"/>
</g>
<g>
	<path fill="#F5DED4" d="M339,429c0,3.866-3.134,7-7,7H72c-3.866,0-7-3.134-7-7v-20c0-3.866,3.134-7,7-7h260c3.866,0,7,3.134,7,7
		V429z M339,449c0-3.866-3.134-7-7-7H72c-3.866,0-7,3.134-7,7v20c0,3.866,3.134,7,7,7h260c3.866,0,7-3.134,7-7V449z M339,489
		c0-3.866-3.134-7-7-7H72c-3.866,0-7,3.134-7,7v20c0,3.866,3.134,7,7,7h260c3.866,0,7-3.134,7-7V489z M339,530c0-3.866-3.134-7-7-7
		H72c-3.866,0-7,3.134-7,7v20c0,3.866,3.134,7,7,7h260c3.866,0,7-3.134,7-7V530z M339,570c0-3.866-3.134-7-7-7H72
		c-3.866,0-7,3.134-7,7v20c0,3.866,3.134,7,7,7h260c3.866,0,7-3.134,7-7V570z M339,610c0-3.866-3.134-7-7-7H72c-3.866,0-7,3.134-7,7
		v20c0,3.866,3.134,7,7,7h260c3.866,0,7-3.134,7-7V610z M339,650c0-3.866-3.134-7-7-7H72c-3.866,0-7,3.134-7,7v20
		c0,3.866,3.134,7,7,7h260c3.866,0,7-3.134,7-7V650z M339,690c0-3.866-3.134-7-7-7H72c-3.866,0-7,3.134-7,7v20c0,3.866,3.134,7,7,7
		h260c3.866,0,7-3.134,7-7V690z"/>
</g>
<g>
	<path fill="#D4DEEB" d="M339,751c0,3.866-3.134,7-7,7H72c-3.866,0-7-3.134-7-7v-20c0-3.866,3.134-7,7-7h260c3.866,0,7,3.134,7,7
		V751z M339,771c0-3.866-3.134-7-7-7H72c-3.866,0-7,3.134-7,7v20c0,3.866,3.134,7,7,7h260c3.866,0,7-3.134,7-7V771z M339,811
		c0-3.866-3.134-7-7-7H72c-3.866,0-7,3.134-7,7v20c0,3.866,3.134,7,7,7h260c3.866,0,7-3.134,7-7V811z M339,851c0-3.866-3.134-7-7-7
		H72c-3.866,0-7,3.134-7,7v20c0,3.866,3.134,7,7,7h260c3.866,0,7-3.134,7-7V851z M339,892c0-3.866-3.134-7-7-7H72
		c-3.866,0-7,3.134-7,7v20c0,3.866,3.134,7,7,7h260c3.866,0,7-3.134,7-7V892z"/>
</g>
<g>
	<path fill="#CDDED7" d="M339,952c0,3.866-3.134,7-7,7H72c-3.866,0-7-3.134-7-7v-20c0-3.866,3.134-7,7-7h260c3.866,0,7,3.134,7,7
		V952z M339,972c0-3.866-3.134-7-7-7H72c-3.866,0-7,3.134-7,7v20c0,3.866,3.134,7,7,7h260c3.866,0,7-3.134,7-7V972z"/>
</g>
<g filter="url(#drop-shadow)">
	<path fill="#F7E6E8" d="M156,63.227c0,3.85-3.15,7-7,7H28c-3.85,0-7-3.15-7-7v-22c0-3.85,3.15-7,7-7h121c3.85,0,7,3.15,7,7V63.227z
		"/>
</g>
<g filter="url(#drop-shadow)">
	<path fill="#F7E6E8" d="M353,38c0,3.85-3.15,7-7,7H190c-3.85,0-7-3.15-7-7V16c0-3.85,3.15-7,7-7h156c3.85,0,7,3.15,7,7V38z"/>
</g>
<g filter="url(#drop-shadow)">
	<path fill="#F7E6E8" d="M353,83.227c0,3.85-3.15,7-7,7H190c-3.85,0-7-3.15-7-7v-22c0-3.85,3.15-7,7-7h156c3.85,0,7,3.15,7,7V83.227
		z"/>
</g>
<g filter="url(#drop-shadow)">
	<path fill="#F7E6E8" d="M156,140.227c0,3.85-3.15,7-7,7H28c-3.85,0-7-3.15-7-7v-22c0-3.85,3.15-7,7-7h121c3.85,0,7,3.15,7,7
		V140.227z"/>
</g>
<g filter="url(#drop-shadow)">
	<rect x="137" y="1426" fill="#E6EDCF" width="170" height="34"/>
</g>
<g filter="url(#drop-shadow)">
	<path fill="#CDD2EB" d="M291.676,202.727c0,3.85-3.15,7-7,7h-242c-3.85,0-7-3.15-7-7v-22c0-3.85,3.15-7,7-7h242c3.85,0,7,3.15,7,7
		V202.727z"/>
</g>
<g filter="url(#drop-shadow)">
	<path fill="#CDD2EB" d="M291.676,1032c0-3.85-3.15-7-7-7h-242c-3.85,0-7,3.15-7,7v20c0,3.85,3.15,7,7,7h242c3.85,0,7-3.15,7-7V1032
		z"/>
</g>
<g filter="url(#drop-shadow)">
	<path fill="#CDD2EB" d="M291.676,1134c0-3.85-3.15-7-7-7h-242c-3.85,0-7,3.15-7,7v20c0,3.85,3.15,7,7,7h242c3.85,0,7-3.15,7-7V1134
		z"/>
</g>
<g filter="url(#drop-shadow)">
	<path fill="#CDD2EB" d="M291.676,1225c0-3.85-3.15-7-7-7h-242c-3.85,0-7,3.15-7,7v20c0,3.85,3.15,7,7,7h242c3.85,0,7-3.15,7-7V1225
		z"/>
</g>
<g filter="url(#drop-shadow)">
	<path fill="#CDD2EB" d="M291.676,1659c0-3.85-3.15-7-7-7h-242c-3.85,0-7,3.15-7,7v20c0,3.85,3.15,7,7,7h242c3.85,0,7-3.15,7-7V1659
		z"/>
</g>
<g>
	<path fill="#FAE3AC" d="M269,258c0,3.866-3.134,7-7,7H72c-3.866,0-7-3.134-7-7v-20c0-3.866,3.134-7,7-7h190c3.866,0,7,3.134,7,7
		V258z M269,278c0-3.866-3.134-7-7-7H72c-3.866,0-7,3.134-7,7v20c0,3.866,3.134,7,7,7h190c3.866,0,7-3.134,7-7V278z M269,318
		c0-3.866-3.134-7-7-7H72c-3.866,0-7,3.134-7,7v20c0,3.866,3.134,7,7,7h190c3.866,0,7-3.134,7-7V318z M269,358c0-3.866-3.134-7-7-7
		H72c-3.866,0-7,3.134-7,7v20c0,3.866,3.134,7,7,7h190c3.866,0,7-3.134,7-7V358z"/>
</g>
<g>
	<path fill="#E6EDCF" d="M336,1634H188v-32h148V1634z M336,1481H188v34h148V1481z M336,1521H188v34h148V1521z M336,1561H188v34h148
		V1561z"/>
	<g>
		<g>
			<polyline fill="none" stroke="#BB4460" stroke-width="2" stroke-miterlimit="10" points="336,1632.773 336,1634.273 
				334.5,1634.273 			"/>
			
				<line fill="none" stroke="#BB4460" stroke-width="2" stroke-miterlimit="10" stroke-dasharray="3,2" x1="333" y1="1634" x2="190" y2="1634"/>
			<polyline fill="none" stroke="#BB4460" stroke-width="2" stroke-miterlimit="10" points="189.5,1634.273 188,1634.273 
				188,1632.773 			"/>
			
				<line fill="none" stroke="#BB4460" stroke-width="2" stroke-miterlimit="10" stroke-dasharray="3,2" x1="188" y1="1631" x2="188" y2="1605"/>
			<polyline fill="none" stroke="#BB4460" stroke-width="2" stroke-miterlimit="10" points="188,1603.773 188,1602.273 
				189.5,1602.273 			"/>
			
				<line fill="none" stroke="#BB4460" stroke-width="2" stroke-miterlimit="10" stroke-dasharray="3,2" x1="191" y1="1602" x2="334" y2="1602"/>
			<polyline fill="none" stroke="#BB4460" stroke-width="2" stroke-miterlimit="10" points="334.5,1602.273 336,1602.273 
				336,1603.773 			"/>
			
				<line fill="none" stroke="#BB4460" stroke-width="2" stroke-miterlimit="10" stroke-dasharray="3,2" x1="336" y1="1606" x2="336" y2="1632"/>
		</g>
		<g>
			<polyline fill="none" stroke="#BB4460" stroke-width="2" stroke-miterlimit="10" points="336,1482.5 336,1481 334.5,1481 			"/>
			
				<line fill="none" stroke="#BB4460" stroke-width="2" stroke-miterlimit="10" stroke-dasharray="3,2" x1="333" y1="1481" x2="190" y2="1481"/>
			<polyline fill="none" stroke="#BB4460" stroke-width="2" stroke-miterlimit="10" points="189.5,1481 188,1481 188,1482.5 			"/>
			
				<line fill="none" stroke="#BB4460" stroke-width="2" stroke-miterlimit="10" stroke-dasharray="3,2" x1="188" y1="1484" x2="188" y2="1513"/>
			<polyline fill="none" stroke="#BB4460" stroke-width="2" stroke-miterlimit="10" points="188,1513.5 188,1515 189.5,1515 			"/>
			
				<line fill="none" stroke="#BB4460" stroke-width="2" stroke-miterlimit="10" stroke-dasharray="3,2" x1="191" y1="1515" x2="334" y2="1515"/>
			<polyline fill="none" stroke="#BB4460" stroke-width="2" stroke-miterlimit="10" points="334.5,1515 336,1515 336,1513.5 			"/>
			
				<line fill="none" stroke="#BB4460" stroke-width="2" stroke-miterlimit="10" stroke-dasharray="3,2" x1="336" y1="1512" x2="336" y2="1483"/>
		</g>
		<g>
			<polyline fill="none" stroke="#BB4460" stroke-width="2" stroke-miterlimit="10" points="336,1522.5 336,1521 334.5,1521 			"/>
			
				<line fill="none" stroke="#BB4460" stroke-width="2" stroke-miterlimit="10" stroke-dasharray="3,2" x1="333" y1="1521" x2="190" y2="1521"/>
			<polyline fill="none" stroke="#BB4460" stroke-width="2" stroke-miterlimit="10" points="189.5,1521 188,1521 188,1522.5 			"/>
			
				<line fill="none" stroke="#BB4460" stroke-width="2" stroke-miterlimit="10" stroke-dasharray="3,2" x1="188" y1="1524" x2="188" y2="1553"/>
			<polyline fill="none" stroke="#BB4460" stroke-width="2" stroke-miterlimit="10" points="188,1553.5 188,1555 189.5,1555 			"/>
			
				<line fill="none" stroke="#BB4460" stroke-width="2" stroke-miterlimit="10" stroke-dasharray="3,2" x1="191" y1="1555" x2="334" y2="1555"/>
			<polyline fill="none" stroke="#BB4460" stroke-width="2" stroke-miterlimit="10" points="334.5,1555 336,1555 336,1553.5 			"/>
			
				<line fill="none" stroke="#BB4460" stroke-width="2" stroke-miterlimit="10" stroke-dasharray="3,2" x1="336" y1="1552" x2="336" y2="1523"/>
		</g>
		<g>
			<polyline fill="none" stroke="#BB4460" stroke-width="2" stroke-miterlimit="10" points="336,1562.5 336,1561 334.5,1561 			"/>
			
				<line fill="none" stroke="#BB4460" stroke-width="2" stroke-miterlimit="10" stroke-dasharray="3,2" x1="333" y1="1561" x2="190" y2="1561"/>
			<polyline fill="none" stroke="#BB4460" stroke-width="2" stroke-miterlimit="10" points="189.5,1561 188,1561 188,1562.5 			"/>
			
				<line fill="none" stroke="#BB4460" stroke-width="2" stroke-miterlimit="10" stroke-dasharray="3,2" x1="188" y1="1564" x2="188" y2="1593"/>
			<polyline fill="none" stroke="#BB4460" stroke-width="2" stroke-miterlimit="10" points="188,1593.5 188,1595 189.5,1595 			"/>
			
				<line fill="none" stroke="#BB4460" stroke-width="2" stroke-miterlimit="10" stroke-dasharray="3,2" x1="191" y1="1595" x2="334" y2="1595"/>
			<polyline fill="none" stroke="#BB4460" stroke-width="2" stroke-miterlimit="10" points="334.5,1595 336,1595 336,1593.5 			"/>
			
				<line fill="none" stroke="#BB4460" stroke-width="2" stroke-miterlimit="10" stroke-dasharray="3,2" x1="336" y1="1592" x2="336" y2="1563"/>
		</g>
	</g>
</g>

<!--文字內容-->
<text transform="matrix(1 0 0 1 78.8594 417.4404)">
<tspan x="0" y="0" fill="#333333" font-family="'Merriweather', Times, serif" font-size="13"><a href="https://www1.ihp.sinica.edu.tw/en/Research/Centers/cultural-and-intellectual-history" target="_top">Cultural and Intellectual History</a></tspan><tspan x="0" y="15.6" fill="#333333" font-family="'Merriweather', Times, serif" font-size="13"><a href="https://www1.ihp.sinica.edu.tw/en/Research/Centers/cultural-and-intellectual-history" target="_top">Research Center</a></tspan></text>

<text transform="matrix(1 0 0 1 78.8594 463.4404)" fill="#333333" font-family="'Merriweather', Times, serif" font-size="13"><a href="https://www1.ihp.sinica.edu.tw/en/Research/Centers/legal-history" target="_top">Institutions and Society</a></text>

<text transform="matrix(1 0 0 1 78.8594 496.4395)"><tspan x="0" y="0" fill="#333333" font-family="'Merriweather', Times, serif" font-size="13"><a href="https://www1.ihp.sinica.edu.tw/en/Research/Centers/archaeology-of-taiwan-and-southeast-asia" target="_top">Archaeology of Taiwan and Southeast</a></tspan><tspan x="0" y="15.601" fill="#333333" font-family="'Merriweather', Times, serif" font-size="13"><a href="https://www1.ihp.sinica.edu.tw/en/Research/Centers/archaeology-of-taiwan-and-southeast-asia" target="_top">Asia Research Center</a></tspan></text>

<text transform="matrix(1 0 0 1 78.8594 544.4395)" fill="#333333" font-family="'Merriweather', Times, serif" font-size="13"><a href="https://www1.ihp.sinica.edu.tw/en/Research/Centers/images-and-artifacts" target="_top">Images and Artifacts Research Center</a></text>

<text transform="matrix(1 0 0 1 78.8594 576.4404)"><tspan x="0" y="0" fill="#333333" font-family="'Merriweather', Times, serif" font-size="13"><a href="https://www1.ihp.sinica.edu.tw/en/Research/Centers/history-of-health-and-healing" target="_top">History of Health and Healing</a></tspan>
<tspan x="0" y="15.6" fill="#333333" font-family="'Merriweather', Times, serif" font-size="13"><a href="https://www1.ihp.sinica.edu.tw/en/Research/Centers/history-of-health-and-healing" target="_top">Research Center</a></tspan></text>

<text transform="matrix(1 0 0 1 78.8594 616.4404)"><tspan x="0" y="0" fill="#333333" font-family="'Merriweather', Times, serif" font-size="13"><a href="https://www1.ihp.sinica.edu.tw/en/Research/Centers/custom-religion-and-daily-life" target="_top">Custom, Religion, and Daily Life</a></tspan><tspan x="0" y="15.6" fill="#333333" font-family="'Merriweather', Times, serif" font-size="13"><a href="https://www1.ihp.sinica.edu.tw/en/Research/Centers/custom-religion-and-daily-life" target="_top">Research Center</a></tspan></text>

<text transform="matrix(1 0 0 1 78.8594 665.4404)">
<tspan x="0" y="0" fill="#333333" font-family="'Merriweather', Times, serif" font-size="13"><a href="https://www1.ihp.sinica.edu.tw/en/Research/Centers/world-history" target="_top">World History Research Center</a></tspan>

<tspan x="0" y="40.2" fill="#333333" font-family="'Merriweather', Times, serif" font-size="13"><a href="https://www1.ihp.sinica.edu.tw/en/Research/Centers/digital-humanities" target="_top">Digital Humanities Research Center</a></tspan>

<tspan x="0" y="74" fill="#333333" font-family="'Merriweather', Times, serif" font-size="13"><a href="https://www1.ihp.sinica.edu.tw/en/Research/Groups/culturalAndAntellectualHistory" target="_top">Grand Secretariat Archives Project</a></tspan><tspan x="0" y="89" fill="#333333" font-family="'Merriweather', Times, serif" font-size="13"><a href="https://www1.ihp.sinica.edu.tw/en/Research/Groups/culturalAndAntellectualHistory" target="_top">Research Group</a></tspan>

<tspan x="0" y="120.6" fill="#333333" font-family="'Merriweather', Times, serif" font-size="13"><a href="https://www1.ihp.sinica.edu.tw/en/Research/Groups/scriptaSinica" target="_top">Scripta Sinica Research Group</a></tspan>

<tspan x="0" y="160.8" fill="#333333" font-family="'Merriweather', Times, serif" font-size="13"><a href="https://www1.ihp.sinica.edu.tw/en/Research/Groups/bronzeInscriptions" target="_top">Bronze Inscriptions Research Group</a></tspan>

<tspan x="0" y="201" fill="#333333" font-family="'Merriweather', Times, serif" font-size="13"><a href="https://www1.ihp.sinica.edu.tw/en/Research/Groups/anyangArchaeologicalSite" target="_top">Anyang Research Group</a></tspan>

<tspan x="0" y="241.2" fill="#333333" font-family="'Merriweather', Times, serif" font-size="13"><a href="https://www1.ihp.sinica.edu.tw/en/Research/Groups/history-of-the-ihp" target="_top">History of the IHP Research Group</a></tspan>

<tspan x="0" y="281.4" fill="#333333" font-family="'Merriweather', Times, serif" font-size="13">Archaeometry Laboratory</tspan>

<tspan x="0" y="321.6" fill="#333333" font-family="'Merriweather', Times, serif" font-size="13">Cultural Relic Preservation Laboratory</tspan>
</text>

<text transform="matrix(1 0 0 1 78.8594 253.2905)">
<tspan x="0" y="0" fill="#333333" font-family="'Merriweather', Times, serif" font-size="13"><a href="https://www1.ihp.sinica.edu.tw/en/AboutIHP/Departments/history" target="_top">History Department</a></tspan>

<tspan x="0" y="39.6" fill="#333333" font-family="'Merriweather', Times, serif" font-size="13"><a href="https://www1.ihp.sinica.edu.tw/en/AboutIHP/Departments/archaeology" target="_top">Archaeology Department</a></tspan>

<tspan x="0" y="79.2" fill="#333333" font-family="'Merriweather', Times, serif" font-size="13"><a href="https://www1.ihp.sinica.edu.tw/en/AboutIHP/Departments/anthropology" target="_top">Anthropology Department</a></tspan>

<tspan x="0" y="118.8" fill="#333333" font-family="'Merriweather', Times, serif" font-size="13"><a href="https://www1.ihp.sinica.edu.tw/en/AboutIHP/Departments/philology" target="_top">Philology Department</a></tspan></text>


<text transform="matrix(1 0 0 1 199.1377 1504.3408)">
<tspan x="0" y="0" fill="#333333" font-family="'Merriweather', Times, serif" font-size="13"><a href="https://www1.ihp.sinica.edu.tw/en/People/AdministrativeStaff" target="_top">General Affairs</a></tspan>

<tspan x="0" y="39.6" fill="#333333" font-family="'Merriweather', Times, serif" font-size="13"><a href="https://www1.ihp.sinica.edu.tw/en/People/AdministrativeStaff" target="_top">Secretary</a></tspan>

<tspan x="0" y="79.2" fill="#333333" font-family="'Merriweather', Times, serif" font-size="13"><a href="https://www1.ihp.sinica.edu.tw/en/People/AdministrativeStaff" target="_top">Accounting</a></tspan>

<tspan x="0" y="118.8" fill="#333333" font-family="'Merriweather', Times, serif" font-size="13"><a href="https://www1.ihp.sinica.edu.tw/en/People/AdministrativeStaff" target="_top">Information Center</a></tspan></text>


<text transform="matrix(1 0 0 1 145.1494 1090.7139)" fill="#333333" font-family="'Merriweather', Times, serif" font-size="13"><a href="https://www1.ihp.sinica.edu.tw/en/People/AdministrativeStaff" target="_top">Editorial and Publishing Office</a></text>
<text transform="matrix(1 0 0 1 50.3066 197.2061)" fill="#333333" font-family="'Merriweather', Times, serif" font-size="13">Academic Development Committee</text>

<text transform="matrix(1 0 0 1 59.3887 57.9668)" fill="#333333" font-family="'Merriweather', Times, serif" font-size="13"><a href="https://www1.ihp.sinica.edu.tw/en/AboutIHP/Directors" target="_top">Director</a></text>

<text transform="matrix(1 0 0 1 38.9873 135.4995)" fill="#333333" font-family="'Merriweather', Times, serif" font-size="13"><a href="https://www1.ihp.sinica.edu.tw/en/AboutIHP/Directors" target="_top">Deputy Director</a></text>

<text transform="matrix(1 0 0 1 210.4912 32.5576)" fill="#333333" font-family="'Merriweather', Times, serif" font-size="13">Institute Council</text>

<text transform="matrix(1 0 0 1 202.583 78.207)" fill="#333333" font-family="'Merriweather', Times, serif" font-size="13"><a href="https://www1.ihp.sinica.edu.tw/en/AboutIHP/AdvisoryBoard" target="_top">Advisory Committee</a></text>

<text transform="matrix(1 0 0 1 50.0176 1047.4736)" fill="#333333" font-family="'Merriweather', Times, serif" font-size="13"><a href="https://www1.ihp.sinica.edu.tw/en/Publications/Bulletin2" target="_top">Editorial and Publishing Committee</a></text>

<g>
	<text transform="matrix(1 0 0 1 95.083 1149.4736)" fill="#333333" font-family="'Merriweather', Times, serif" font-size="13">Library Committee</text>
</g>

<text transform="matrix(1 0 0 1 80.3857 1241.4736)" fill="#333333" font-family="'Merriweather', Times, serif" font-size="13">IHP Archives Committee</text>

<text transform="matrix(1 0 0 1 65.1191 1674.5645)" fill="#333333" font-family="'Merriweather', Times, serif" font-size="13">Information Center Committee</text>

<g>
	<text transform="matrix(1 0 0 1 145.0703 1191.0947)" fill="#333333" font-family="'Merriweather', Times, serif" font-size="13"><a href="https://www1.ihp.sinica.edu.tw/en/Resource/Library" target="_top">Fu Ssu-nien Library</a></text>
</g>

<g>
	<text transform="matrix(1 0 0 1 145.0703 1282.293)" fill="#333333" font-family="'Merriweather', Times, serif" font-size="13"><a href="https://www1.ihp.sinica.edu.tw/en/Resource/Archives" target="_top">IHP Archives</a></text>
</g>

<text transform="matrix(1 0 0 1 145.0703 1325.1562)" fill="#333333" font-family="'Merriweather', Times, serif" font-size="13"><a href="https://www1.ihp.sinica.edu.tw/en/Resource/Museum" target="_top">Museum of the IHP</a></text>

<text transform="matrix(1 0 0 1 145.0703 1375.1562)"><tspan x="0" y="0" fill="#333333" font-family="'Merriweather', Times, serif" font-size="13"><a href="https://www1.ihp.sinica.edu.tw/en/Resource/CTA" target="_top">Taiwan Archaeological</a></tspan><tspan x="0" y="15.6" fill="#333333" font-family="'Merriweather', Times, serif" font-size="13"><a href="https://www1.ihp.sinica.edu.tw/en/Resource/CTA" target="_top">Studies Building</a></tspan></text>

<g>
	<text transform="matrix(1 0 0 1 146 1447.4043)" fill="#333333" font-family="'Merriweather', Times, serif" font-size="13">Administrative Support</text>
</g>
</svg>
