<?xml version="1.0" encoding="utf-8"?>
<!-- Generator: Adobe Illustrator 15.1.0, SVG Export Plug-In . SVG Version: 6.00 Build 0)  -->
<!DOCTYPE svg PUBLIC "-//W3C//DTD SVG 1.1//EN" "http://www.w3.org/Graphics/SVG/1.1/DTD/svg11.dtd">
<svg version="1.1" id="organization" xmlns="http://www.w3.org/2000/svg" xmlns:xlink="http://www.w3.org/1999/xlink" x="0px"
	 y="0px" width="992px" height="970px" viewBox="0 0 992 970" enable-background="new 0 0 992 970" xml:space="preserve">
<filter  y="-50%" x="-50%" width="200%" height="200%" id="drop-shadow" ilterUnits="objectBoundingBox">
	<feGaussianBlur  result="DROP" in="SourceAlpha" stdDeviation="5"></feGaussianBlur>
	<feFlood  result="COLOR" flood-color="#c6c6c6"></feFlood>
	<feComposite  result="SHADOW" operator="in" in="COLOR" in2="DROP"></feComposite>
	<feOffset  result="DROPSHADOW" in="SHADOW" dx="3" dy="3"></feOffset>
	<feMerge>
		<feMergeNode  in="DROPSHADOW"></feMergeNode>
		<feMergeNode  in="SourceGraphic"></feMergeNode>
	</feMerge>
</filter>

<!--載入字體-->
<defs>
<style type="text/css">@import url("https://fonts.googleapis.com/css2?family=Noto+Serif+JP:wght@600");</style>
</defs>


<line fill="none" stroke="#BB4460" stroke-width="2" stroke-miterlimit="10" x1="289" y1="259" x2="384" y2="259"/>
<line fill="none" stroke="#BB4460" stroke-width="2" stroke-miterlimit="10" x1="620" y1="259" x2="525" y2="259"/>
<g>
	<path fill="none" stroke="#BB4460" stroke-width="2" stroke-miterlimit="10" d="M83,576H69.02c-5.5,0-10.02-4.023-10.02-9.523v-423
		c0-5.5,4.52-10.477,10.02-10.477H83"/>
</g>
<g>
	<path fill="none" stroke="#BB4460" stroke-width="2" stroke-miterlimit="10" d="M102,912c0,0-4.028,0-8.979,0
		S84,907.977,84,902.477v-635c0-5.5,4.071-10.477,9.021-10.477s8.979,0,8.979,0"/>
</g>
<line fill="none" stroke="#BB4460" stroke-width="2" stroke-miterlimit="10" x1="152" y1="73" x2="152" y2="117"/>
<g>
	<g>
		<line fill="none" stroke="#BB4460" stroke-width="2" stroke-miterlimit="10" x1="290" y1="912" x2="292" y2="912"/>
		
			<line fill="none" stroke="#BB4460" stroke-width="2" stroke-miterlimit="10" stroke-dasharray="3,2" x1="294" y1="912" x2="477" y2="912"/>
		<line fill="none" stroke="#BB4460" stroke-width="2" stroke-miterlimit="10" x1="478" y1="912" x2="479" y2="912"/>
	</g>
</g>
<line fill="none" stroke="#BB4460" stroke-width="2" stroke-miterlimit="10" x1="84" y1="844" x2="462" y2="844"/>
<line fill="none" stroke="#BB4460" stroke-width="2" stroke-miterlimit="10" x1="84" y1="726" x2="198" y2="726"/>
<line fill="none" stroke="#BB4460" stroke-width="2" stroke-miterlimit="10" x1="84" y1="785" x2="198" y2="785"/>
<line fill="none" stroke="#BB4460" stroke-width="2" stroke-miterlimit="10" x1="84" y1="358" x2="620" y2="358"/>
<line fill="none" stroke="#BB4460" stroke-width="2" stroke-miterlimit="10" x1="83" y1="446" x2="150" y2="446"/>
<line fill="none" stroke="#BB4460" stroke-width="2" stroke-miterlimit="10" x1="83" y1="528" x2="150" y2="528"/>
<line fill="none" stroke="#BB4460" stroke-width="2" stroke-miterlimit="10" x1="83" y1="624" x2="150" y2="624"/>
<line fill="none" stroke="#BB4460" stroke-width="2" stroke-miterlimit="10" stroke-dasharray="3,2" x1="291" y1="444" x2="306" y2="444"/>
<polyline fill="none" stroke="#BB4460" stroke-width="2" stroke-miterlimit="10" stroke-dasharray="3,2" points="152,547 152,570 
	201,570 "/>
<polyline fill="none" stroke="#BB4460" stroke-width="2" stroke-miterlimit="10" stroke-dasharray="3,2" points="152,641 152,664 
	201,664 "/>
<g filter="url(#drop-shadow)">
	<path fill="#FAF5F5" d="M922.98,749.977c0,5.5-4.5,10-10,10h-282c-5.5,0-10-4.5-10-10v-549c0-5.5,4.5-10,10-10h282
		c5.5,0,10,4.5,10,10V749.977z"/>
</g>
<g filter="url(#drop-shadow)">
	<path fill="#FAF5F5" d="M539.48,311.477c0,5.5-4.5,10-10,10h-153c-5.5,0-10-4.5-10-10v-110c0-5.5,4.5-10,10-10h153
		c5.5,0,10,4.5,10,10V311.477z"/>
</g>
<g filter="url(#drop-shadow)">
	<path fill="#FAF5F5" d="M598.48,899.477c0,5.5-4.5,10-10,10h-117c-5.5,0-10-4.5-10-10v-114c0-5.5,4.5-10,10-10h117
		c5.5,0,10,4.5,10,10V899.477z"/>
</g>
<g filter="url(#drop-shadow)">
	<path fill="#F7E6E8" d="M229.195,67.227c0,3.85-3.15,7-7,7h-141c-3.85,0-7-3.15-7-7v-20c0-3.85,3.15-7,7-7h141c3.85,0,7,3.15,7,7
		V67.227z"/>
</g>
<g filter="url(#drop-shadow)">
	<path fill="#F7E6E8" d="M448.042,45.727c0,3.85-3.15,7-7,7h-176c-3.85,0-7-3.15-7-7v-20c0-3.85,3.15-7,7-7h176c3.85,0,7,3.15,7,7
		V45.727z"/>
</g>
<g filter="url(#drop-shadow)">
	<path fill="#F7E6E8" d="M448.042,92.227c0,3.85-3.15,7-7,7h-176c-3.85,0-7-3.15-7-7v-20c0-3.85,3.15-7,7-7h176c3.85,0,7,3.15,7,7
		V92.227z"/>
</g>
<g filter="url(#drop-shadow)">
	<path fill="#F7E6E8" d="M229.195,144.227c0,3.85-3.15,7-7,7h-141c-3.85,0-7-3.15-7-7v-20c0-3.85,3.15-7,7-7h141c3.85,0,7,3.15,7,7
		V144.227z"/>
</g>
<g filter="url(#drop-shadow)">
	<rect x="305.02" y="426.477" fill="#E6EDCF" width="124" height="34"/>
	<g>
		<polyline fill="none" stroke="#BB4460" stroke-width="2" stroke-miterlimit="10" points="429.02,458.977 429.02,460.477 
			427.52,460.477 		"/>
		
			<line fill="none" stroke="#BB4460" stroke-width="2" stroke-miterlimit="10" stroke-dasharray="2.9754,1.9836" x1="425.536" y1="460.477" x2="307.511" y2="460.477"/>
		<polyline fill="none" stroke="#BB4460" stroke-width="2" stroke-miterlimit="10" points="306.52,460.477 305.02,460.477 
			305.02,458.977 		"/>
		
			<line fill="none" stroke="#BB4460" stroke-width="2" stroke-miterlimit="10" stroke-dasharray="2.9062,1.9375" x1="305.02" y1="457.039" x2="305.02" y2="428.945"/>
		<polyline fill="none" stroke="#BB4460" stroke-width="2" stroke-miterlimit="10" points="305.02,427.977 305.02,426.477 
			306.52,426.477 		"/>
		
			<line fill="none" stroke="#BB4460" stroke-width="2" stroke-miterlimit="10" stroke-dasharray="2.9754,1.9836" x1="308.503" y1="426.477" x2="426.528" y2="426.477"/>
		<polyline fill="none" stroke="#BB4460" stroke-width="2" stroke-miterlimit="10" points="427.52,426.477 429.02,426.477 
			429.02,427.977 		"/>
		
			<line fill="none" stroke="#BB4460" stroke-width="2" stroke-miterlimit="10" stroke-dasharray="2.9062,1.9375" x1="429.02" y1="429.914" x2="429.02" y2="458.008"/>
	</g>
</g>
<g filter="url(#drop-shadow)">
	<rect x="304" y="825" fill="#E6EDCF" width="124" height="34"/>
</g>
<g filter="url(#drop-shadow)">
	<path fill="#CDD2EB" d="M289.695,267.477c0,3.85-3.15,7-7,7h-176c-3.85,0-7-3.15-7-7v-20c0-3.85,3.15-7,7-7h176c3.85,0,7,3.15,7,7
		V267.477z"/>
</g>
<g filter="url(#drop-shadow)">
	<path fill="#CDD2EB" d="M289.695,434.477c0-3.85-3.15-7-7-7h-176c-3.85,0-7,3.15-7,7v20c0,3.85,3.15,7,7,7h176c3.85,0,7-3.15,7-7
		V434.477z"/>
</g>
<g filter="url(#drop-shadow)">
	<path fill="#CDD2EB" d="M289.695,517.477c0-3.85-3.15-7-7-7h-176c-3.85,0-7,3.15-7,7v20c0,3.85,3.15,7,7,7h176c3.85,0,7-3.15,7-7
		V517.477z"/>
</g>
<g filter="url(#drop-shadow)">
	<path fill="#CDD2EB" d="M289.695,612.477c0-3.85-3.15-7-7-7h-176c-3.85,0-7,3.15-7,7v20c0,3.85,3.15,7,7,7h176c3.85,0,7-3.15,7-7
		V612.477z"/>
</g>
<g filter="url(#drop-shadow)">
	<path fill="#CDD2EB" d="M289.695,903.477c0-3.85-3.15-7-7-7h-176c-3.85,0-7,3.15-7,7v20c0,3.85,3.15,7,7,7h176c3.85,0,7-3.15,7-7
		V903.477z"/>
</g>
<g>
	<path fill="#FAE3AC" d="M526,206c0,3.866-3.134,7-7,7H388c-3.866,0-7-3.134-7-7v-20c0-3.866,3.134-7,7-7h131c3.866,0,7,3.134,7,7
		V206z M526,227c0-3.866-3.134-7-7-7H388c-3.866,0-7,3.134-7,7v20c0,3.866,3.134,7,7,7h131c3.866,0,7-3.134,7-7V227z M526,267
		c0-3.866-3.134-7-7-7H388c-3.866,0-7,3.134-7,7v20c0,3.866,3.134,7,7,7h131c3.866,0,7-3.134,7-7V267z M526,308c0-3.866-3.134-7-7-7
		H388c-3.866,0-7,3.134-7,7v20c0,3.866,3.134,7,7,7h131c3.866,0,7-3.134,7-7V308z"/>
</g>
<g>
	<path fill="#F5DED4" d="M909,206c0,3.866-3.134,7-7,7H642c-3.866,0-7-3.134-7-7v-20c0-3.866,3.134-7,7-7h260c3.866,0,7,3.134,7,7
		V206z M909,226c0-3.866-3.134-7-7-7H642c-3.866,0-7,3.134-7,7v20c0,3.866,3.134,7,7,7h260c3.866,0,7-3.134,7-7V226z M909,266
		c0-3.866-3.134-7-7-7H642c-3.866,0-7,3.134-7,7v20c0,3.866,3.134,7,7,7h260c3.866,0,7-3.134,7-7V266z M909,307c0-3.866-3.134-7-7-7
		H642c-3.866,0-7,3.134-7,7v20c0,3.866,3.134,7,7,7h260c3.866,0,7-3.134,7-7V307z M909,347c0-3.866-3.134-7-7-7H642
		c-3.866,0-7,3.134-7,7v20c0,3.866,3.134,7,7,7h260c3.866,0,7-3.134,7-7V347z M909,387c0-3.866-3.134-7-7-7H642
		c-3.866,0-7,3.134-7,7v20c0,3.866,3.134,7,7,7h260c3.866,0,7-3.134,7-7V387z M909,427c0-3.866-3.134-7-7-7H642
		c-3.866,0-7,3.134-7,7v20c0,3.866,3.134,7,7,7h260c3.866,0,7-3.134,7-7V427z M909,467c0-3.866-3.134-7-7-7H642
		c-3.866,0-7,3.134-7,7v20c0,3.866,3.134,7,7,7h260c3.866,0,7-3.134,7-7V467z"/>
</g>
<g>
	<path fill="#D4DEEB" d="M909,528c0,3.866-3.134,7-7,7H642c-3.866,0-7-3.134-7-7v-20c0-3.866,3.134-7,7-7h260c3.866,0,7,3.134,7,7
		V528z M909,548c0-3.866-3.134-7-7-7H642c-3.866,0-7,3.134-7,7v20c0,3.866,3.134,7,7,7h260c3.866,0,7-3.134,7-7V548z M909,588
		c0-3.866-3.134-7-7-7H642c-3.866,0-7,3.134-7,7v20c0,3.866,3.134,7,7,7h260c3.866,0,7-3.134,7-7V588z M909,628c0-3.866-3.134-7-7-7
		H642c-3.866,0-7,3.134-7,7v20c0,3.866,3.134,7,7,7h260c3.866,0,7-3.134,7-7V628z M909,669c0-3.866-3.134-7-7-7H642
		c-3.866,0-7,3.134-7,7v20c0,3.866,3.134,7,7,7h260c3.866,0,7-3.134,7-7V669z"/>
</g>
<g>
	<path fill="#CDDED7" d="M909,729c0,3.866-3.134,7-7,7H642c-3.866,0-7-3.134-7-7v-20c0-3.866,3.134-7,7-7h260c3.866,0,7,3.134,7,7
		V729z M909,749c0-3.866-3.134-7-7-7H642c-3.866,0-7,3.134-7,7v20c0,3.866,3.134,7,7,7h260c3.866,0,7-3.134,7-7V749z"/>
</g>
<rect x="478" y="765" fill="#E6EDCF" width="106" height="34"/>
<rect x="478" y="805" fill="#E6EDCF" width="106" height="34"/>
<rect x="478" y="846" fill="#E6EDCF" width="106" height="34"/>
<g>
	<rect x="478" y="886" fill="#E6EDCF" width="106" height="34"/>
	<g>
		<polyline fill="none" stroke="#BB4460" stroke-width="2" stroke-miterlimit="10" points="584.02,887.977 584.02,886.477 
			582.52,886.477 		"/>
		
			<line fill="none" stroke="#BB4460" stroke-width="2" stroke-miterlimit="10" stroke-dasharray="3,2" x1="580" y1="886" x2="481" y2="886"/>
		<polyline fill="none" stroke="#BB4460" stroke-width="2" stroke-miterlimit="10" points="479.52,886.477 478.02,886.477 
			478.02,887.977 		"/>
		
			<line fill="none" stroke="#BB4460" stroke-width="2" stroke-miterlimit="10" stroke-dasharray="3,2" x1="478" y1="890" x2="478" y2="918"/>
		<polyline fill="none" stroke="#BB4460" stroke-width="2" stroke-miterlimit="10" points="478.02,918.977 478.02,920.477 
			479.52,920.477 		"/>
		
			<line fill="none" stroke="#BB4460" stroke-width="2" stroke-miterlimit="10" stroke-dasharray="3,2" x1="482" y1="920" x2="582" y2="920"/>
		<polyline fill="none" stroke="#BB4460" stroke-width="2" stroke-miterlimit="10" points="582.52,920.477 584.02,920.477 
			584.02,918.977 		"/>
		
			<line fill="none" stroke="#BB4460" stroke-width="2" stroke-miterlimit="10" stroke-dasharray="3,2" x1="584" y1="917" x2="584" y2="889"/>
	</g>
</g>

<!--文字內容-->
<text transform="matrix(1 0 0 1 650.6943 202.5669)">
<tspan x="-8" y="0" fill="#333333" font-family="'Noto Serif JP', serif" font-size="16.5"><a href="https://www1.ihp.sinica.edu.tw/jp/Research/Centers/cultural-and-intellectual-history" target="_top">⽂化思想史研究室</a></tspan>

<tspan x="-8" y="40.2" fill="#333333" font-family="'Noto Serif JP', serif" font-size="16.5"><a href="https://www1.ihp.sinica.edu.tw/jp/Research/Centers/legal-history" target="_top">制度・社会研究室</a></tspan>

<tspan x="-8" y="80.4" fill="#333333" font-family="'Noto Serif JP', serif" font-size="16.5"><a href="https://www1.ihp.sinica.edu.tw/jp/Research/Centers/archaeology-of-taiwan-and-southeast-asia" target="_top">台湾・東南アジア考古学研究室</a></tspan>

<tspan x="-8" y="120.6" fill="#333333" font-family="'Noto Serif JP', serif" font-size="16.5"><a href="https://www1.ihp.sinica.edu.tw/jp/Research/Centers/images-and-artifacts" target="_top">⽂物・図像研究室</a></tspan>

<tspan x="-8" y="160.8" fill="#333333" font-family="'Noto Serif JP', serif" font-size="16.5"><a href="https://www1.ihp.sinica.edu.tw/jp/Research/Centers/history-of-health-and-healing" target="_top">⽣命・医療史研究室</a></tspan>

<tspan x="-8" y="201" fill="#333333" font-family="'Noto Serif JP', serif" font-size="16.5"><a href="https://www1.ihp.sinica.edu.tw/jp/Research/Centers/custom-religion-and-daily-life" target="_top">礼俗・宗教研究室</a></tspan>

<tspan x="-8" y="241.201" fill="#333333" font-family="'Noto Serif JP', serif" font-size="16.5"><a href="https://www1.ihp.sinica.edu.tw/jp/Research/Centers/world-history" target="_top">世界史研究室</a></tspan>

<tspan x="-8" y="281.4" fill="#333333" font-family="'Noto Serif JP', serif" font-size="16.5"><a href="https://www1.ihp.sinica.edu.tw/jp/Research/Centers/digital-humanities" target="_top">デジタル⼈⽂学研究室</a></tspan>

<tspan x="-8" y="321.6" fill="#333333" font-family="'Noto Serif JP', serif" font-size="16.5"><a href="https://www1.ihp.sinica.edu.tw/jp/Research/Groups/culturalAndAntellectualHistory" target="_top">明清檔案研究グループ</a></tspan>

<tspan x="-8" y="361.8" fill="#333333" font-family="'Noto Serif JP', serif" font-size="16.5"><a href="https://www1.ihp.sinica.edu.tw/jp/Research/Groups/scriptaSinica" target="_top">漢籍全文データベース研究グループ</a></tspan>

<tspan x="-8" y="402" fill="#333333" font-family="'Noto Serif JP', serif" font-size="16.5"><a href="https://www1.ihp.sinica.edu.tw/jp/Research/Groups/bronzeInscriptions" target="_top">⾦⽂研究グループ</a></tspan>

<tspan x="-8" y="442.201" fill="#333333" font-family="'Noto Serif JP', serif" font-size="16.5"><a href="https://www1.ihp.sinica.edu.tw/jp/Research/Groups/anyangArchaeologicalSite" target="_top">安陽研究グループ</a></tspan>

<tspan x="-8" y="482.4" fill="#333333" font-family="'Noto Serif JP', serif" font-size="16.5"><a href="https://www1.ihp.sinica.edu.tw/jp/Research/Groups/history-of-the-ihp" target="_top">所史研究グループ</a></tspan>

<tspan x="-8" y="522.601" fill="#333333" font-family="'Noto Serif JP', serif" font-size="16.5">考古科学研究実験室</tspan>

<tspan x="-8" y="562.8" fill="#333333" font-family="'Noto Serif JP', serif" font-size="16.5">⽂物保存修復実験室</tspan></text>

<text transform="matrix(1 0 0 1 415.8613 202.957)">
<tspan x="0" y="0" fill="#333333" font-family="'Noto Serif JP', serif" font-size="18"><a href="https://www1.ihp.sinica.edu.tw/jp/AboutIHP/Departments/history" target="_top">歴史学⾨</a></tspan>

<tspan x="0" y="40.2" fill="#333333" font-family="'Noto Serif JP', serif" font-size="18"><a href="https://www1.ihp.sinica.edu.tw/jp/AboutIHP/Departments/archaeology" target="_top">考古学⾨</a></tspan>

<tspan x="0" y="80.4" fill="#333333" font-family="'Noto Serif JP', serif" font-size="18"><a href="https://www1.ihp.sinica.edu.tw/jp/AboutIHP/Departments/anthropology" target="_top">⼈類学⾨</a></tspan>

<tspan x="0" y="120.6" fill="#333333" font-family="'Noto Serif JP', serif" font-size="18"><a href="https://www1.ihp.sinica.edu.tw/jp/AboutIHP/Departments/anthropology" target="_top">⽂字学⾨</a></tspan></text>

<g>
	<text transform="matrix(1 0 0 1 503.3613 788.5674)">
	<tspan x="0" y="0" fill="#333333" font-family="'Noto Serif JP', serif" font-size="18" letter-spacing="1"><a href="https://www1.ihp.sinica.edu.tw/jp/People/AdministrativeStaff" target="_top">事務室</a></tspan>
	
	<tspan x="0" y="40.2" fill="#333333" font-family="'Noto Serif JP', serif" font-size="18" letter-spacing="1"><a href="https://www1.ihp.sinica.edu.tw/jp/People/AdministrativeStaff" target="_top">秘書室</a></tspan>
	
	<tspan x="0" y="80.4" fill="#333333" font-family="'Noto Serif JP', serif" font-size="18" letter-spacing="1"><a href="https://www1.ihp.sinica.edu.tw/jp/People/AdministrativeStaff" target="_top">会計室</a></tspan></text>
</g>

<text transform="matrix(1 0 0 1 131.1602 263.5674)" fill="#333333" font-family="'Noto Serif JP', serif" font-size="18">学術発展委員会</text>
<text transform="matrix(1 0 0 1 122.0703 450.5664)" fill="#333333" font-family="'Noto Serif JP', serif" font-size="18"><a href="https://www1.ihp.sinica.edu.tw/jp/Publications/Bulletin2" target="_top">出版品編集委員会</a></text>
<g>
	
		<text transform="matrix(1 0 0 1 140.25 533.5674)" fill="#333333" font-family="'Noto Serif JP', serif" font-size="18">図書館委員会</text>
</g>

<text transform="matrix(1 0 0 1 140.25 629.5674)" fill="#333333" font-family="'Noto Serif JP', serif" font-size="18">档案館委員会</text>

<text transform="matrix(1 0 0 1 109.4697 919.5664)"><tspan x="0" y="0" fill="#333333" font-family="'Noto Serif JP', serif" font-size="18" letter-spacing="1">情報システム</tspan><tspan x="116.1" y="0" fill="#333333" font-family="'Noto Serif JP', serif" font-size="18">委員会</tspan></text>

<text transform="matrix(1 0 0 1 312.9932 449.957)" fill="#333333" font-family="'Noto Serif JP', serif" font-size="18"><a href="https://www1.ihp.sinica.edu.tw/jp/People/AdministrativeStaff" target="_top">編集・出版部</a></text>

<g>
	<text transform="matrix(1 0 0 1 206.7568 574.5771)" fill="#333333" font-family="'Noto Serif JP', serif" font-size="18"><a href="https://www1.ihp.sinica.edu.tw/jp/Resource/Library" target="_top">傅斯年図書館</a></text>
</g>

<g>
	<text transform="matrix(1 0 0 1 206.7568 669.7754)" fill="#333333" font-family="'Noto Serif JP', serif" font-size="18" letter-spacing="1"><a href="https://www1.ihp.sinica.edu.tw/jp/Resource/Archives" target="_top">档案館</a></text>
</g>

<text transform="matrix(1 0 0 1 206.7568 731.4863)" fill="#333333" font-family="'Noto Serif JP', serif" font-size="18"><a href="https://www1.ihp.sinica.edu.tw/jp/Resource/Museum" target="_top">歴史⽂物陳列館</a></text>

<text transform="matrix(1 0 0 1 206.7568 789.6865)" fill="#333333" font-family="'Noto Serif JP', serif" font-size="18"><a href="https://www1.ihp.sinica.edu.tw/jp/Resource/CTA" target="_top">台湾考古館</a></text>

<g>
	<text transform="matrix(1 0 0 1 331.1738 847.8867)" fill="#333333" font-family="'Noto Serif JP', serif" font-size="18">事務業務</text>
</g>

<text transform="matrix(1 0 0 1 131.5371 63.9668)" fill="#333333" font-family="'Noto Serif JP', serif" font-size="18" letter-spacing="3"><a href="https://www1.ihp.sinica.edu.tw/jp/AboutIHP/Directors" target="_top">所⻑</a></text>

<text transform="matrix(1 0 0 1 124.1572 141.0679)" fill="#333333" font-family="'Noto Serif JP', serif" font-size="18"><a href="https://www1.ihp.sinica.edu.tw/jp/AboutIHP/Directors" target="_top">副所⻑</a></text>

<text transform="matrix(1 0 0 1 317.5088 42.2847)" fill="#333333" font-family="'Noto Serif JP', serif" font-size="18">所務会議</text>

<text transform="matrix(1 0 0 1 290.2383 89.207)" fill="#333333" font-family="'Noto Serif JP', serif" font-size="18"><a href="https://www1.ihp.sinica.edu.tw/jp/AboutIHP/AdvisoryBoard" target="_top">学術諮問委員会</a></text>

<text transform="matrix(1 0 0 1 483.8525 900.9277)"><tspan x="0" y="0" fill="#333333" font-family="'Noto Serif JP', serif" font-size="15" letter-spacing="1"><a href="https://www1.ihp.sinica.edu.tw/jp/People/AdministrativeStaff?type=7" target="_top">情報システム</a></tspan><tspan x="24.188" y="15.5" fill="#333333" font-family="'Noto Serif JP', serif" font-size="15" letter-spacing="1"><a href="https://www1.ihp.sinica.edu.tw/jp/People/AdministrativeStaff" target="_top">管理室</a></tspan></text>
</svg>
