<svg width="21" height="20" viewBox="0 0 21 20" fill="none" xmlns="http://www.w3.org/2000/svg">
<g clip-path="url(#clip0)">
<path d="M16.125 10.3125C15.6074 10.3125 15.1875 10.732 15.1875 11.25C15.1875 11.7676 15.6074 12.1875 16.125 12.1875C16.6426 12.1875 17.0625 11.7676 17.0625 11.25C17.0625 10.732 16.6426 10.3125 16.125 10.3125ZM17.375 6.875V3.90156C17.375 3.4043 17.1773 2.92734 16.8258 2.57578L14.7992 0.549219C14.4477 0.197656 13.9707 0 13.4734 0H4.81563C4.15781 0 3.625 0.559766 3.625 1.25V6.875C1.89922 6.875 0.5 8.27422 0.5 10V15C0.5 15.3453 0.779687 15.625 1.125 15.625H3.625V19.375C3.625 19.7203 3.90469 20 4.25 20H16.75C17.0953 20 17.375 19.7203 17.375 19.375V15.625H19.875C20.2203 15.625 20.5 15.3453 20.5 15V10C20.5 8.27422 19.1008 6.875 17.375 6.875ZM5.5 1.875H13V3.75C13 4.09531 13.2797 4.375 13.625 4.375H15.5V6.875H5.5V1.875ZM15.5 18.125H5.5V15.625H15.5V18.125ZM18.625 13.75H2.375V10C2.375 9.31094 2.93594 8.75 3.625 8.75H17.375C18.0641 8.75 18.625 9.31094 18.625 10V13.75Z" fill="#B31111"/>
</g>
<defs>
<clipPath id="clip0">
<rect width="20" height="20" fill="white" transform="translate(0.5)"/>
</clipPath>
</defs>
</svg>
