<?xml version="1.0" encoding="UTF-8" standalone="no"?><!-- Generator: Gravit.io --><svg xmlns="http://www.w3.org/2000/svg" xmlns:xlink="http://www.w3.org/1999/xlink" style="isolation:isolate" viewBox="0 0 19 19" width="19pt" height="19pt"><defs><clipPath id="_clipPath_5JZuosxCPrC27zNuLXb5OB40K6PYJC7t"><rect width="19" height="19"/></clipPath></defs><g clip-path="url(#_clipPath_5JZuosxCPrC27zNuLXb5OB40K6PYJC7t)"><g><path d=" M 17.812 10.687 C 17.498 10.687 17.195 10.812 16.973 11.035 C 16.75 11.258 16.625 11.56 16.625 11.875 L 16.625 15.437 L 2.375 15.437 L 2.375 11.875 C 2.375 11.219 1.843 10.687 1.188 10.687 C 0.532 10.687 0 11.219 0 11.875 L 0 16.625 C 0 16.94 0.125 17.242 0.348 17.465 C 0.57 17.688 0.873 17.813 1.188 17.812 L 17.812 17.812 C 18.127 17.813 18.43 17.688 18.652 17.465 C 18.875 17.242 19 16.94 19 16.625 L 19 11.875 C 19 11.56 18.875 11.258 18.652 11.035 C 18.43 10.812 18.127 10.687 17.812 10.687 L 17.812 10.687 Z " fill="rgb(185,69,69)"/><path d=" M 8.66 12.715 C 8.883 12.937 9.185 13.062 9.5 13.062 C 9.815 13.062 10.117 12.937 10.34 12.715 L 13.902 9.152 C 14.364 8.688 14.363 7.938 13.9 7.475 C 13.437 7.012 12.687 7.011 12.223 7.473 L 10.687 9.008 L 10.687 2.375 C 10.687 1.719 10.156 1.188 9.5 1.188 C 8.844 1.188 8.313 1.719 8.313 2.375 L 8.313 9.008 L 6.777 7.473 C 6.313 7.011 5.563 7.012 5.1 7.475 C 4.637 7.938 4.636 8.688 5.098 9.152 L 8.66 12.715 Z " fill="rgb(185,69,69)"/></g></g></svg>