<svg width="16" height="19" viewBox="0 0 16 19" fill="none" xmlns="http://www.w3.org/2000/svg">
<g clip-path="url(#clip0_1_37)">
<path d="M13.7143 12H6.85714C6.54286 12 6.28571 11.7429 6.28571 11.4286V2.28571C6.28571 1.97143 6.54286 1.71429 6.85714 1.71429H11.8607L14.2857 4.13929V11.4286C14.2857 11.7429 14.0286 12 13.7143 12ZM6.85714 13.7143H13.7143C14.975 13.7143 16 12.6893 16 11.4286V4.13929C16 3.68571 15.8179 3.25 15.4964 2.92857L13.075 0.503571C12.7536 0.182143 12.3179 0 11.8643 0H6.85714C5.59643 0 4.57143 1.025 4.57143 2.28571V11.4286C4.57143 12.6893 5.59643 13.7143 6.85714 13.7143ZM2.28571 4.57143C1.025 4.57143 0 5.59643 0 6.85714V16C0 17.2607 1.025 18.2857 2.28571 18.2857H9.14286C10.4036 18.2857 11.4286 17.2607 11.4286 16V14.8571H9.71429V16C9.71429 16.3143 9.45714 16.5714 9.14286 16.5714H2.28571C1.97143 16.5714 1.71429 16.3143 1.71429 16V6.85714C1.71429 6.54286 1.97143 6.28571 2.28571 6.28571H3.42857V4.57143H2.28571Z" fill="#A51C30"/>
</g>
<defs>
<clipPath id="clip0_1_37">
<rect width="16" height="18.2857" fill="white"/>
</clipPath>
</defs>
</svg>
