<svg width="19" height="20.000000000000004" xmlns="http://www.w3.org/2000/svg">

 <g>
  <title>background</title>
  <rect fill="none" id="canvas_background" height="22" width="21" y="-1" x="-1"/>
 </g>
 <g>
  <title>Layer 1</title>
  <path stroke="null" id="svg_2" fill="#b94545" d="m18.85744,16.341104c0.018084,-0.034048 0.033237,-0.06738 0.044394,-0.104265c0.010677,-0.03501 0.016303,-0.069783 0.020338,-0.106818c0.004428,-0.040305 0.005145,-0.07916 0.001111,-0.120237c-0.001781,-0.018368 0.004034,-0.035687 0.000481,-0.054197l-1.442826,-7.471516c-0.00524,-0.026838 -0.021204,-0.047609 -0.029722,-0.072817c-0.008266,-0.024861 -0.007738,-0.050738 -0.019526,-0.074928c-0.005965,-0.012214 -0.017068,-0.019431 -0.023757,-0.031023c-0.021449,-0.037705 -0.04824,-0.068719 -0.076851,-0.100325c-0.02304,-0.025341 -0.044056,-0.050879 -0.070744,-0.071564c-0.032275,-0.025199 -0.067766,-0.042464 -0.104706,-0.060453c-0.032126,-0.015673 -0.062376,-0.031598 -0.096716,-0.041258c-0.034576,-0.009668 -0.069877,-0.011741 -0.106479,-0.014861c-0.042417,-0.0039 -0.083297,-0.006351 -0.126202,-0.000772c-0.012939,0.001678 -0.024813,-0.002742 -0.037846,-0.000244c-0.025924,0.005004 -0.045836,0.020779 -0.070216,0.028911c-0.025444,0.00851 -0.052038,0.008029 -0.076764,0.020338l-2.168849,1.060187c0.34633,-0.690777 0.629071,-1.548966 0.629071,-2.526093c0,-3.089943 -2.504739,-5.605461 -5.588913,-5.621622c-0.007698,0 -0.013853,0 -0.020007,0s-0.012316,0 -0.020007,0c-3.084947,0.016161 -5.589686,2.531679 -5.589686,5.621622c0,0.967994 0.277934,1.819399 0.620316,2.507292l-2.70568,1.322534c-0.011252,0.005532 -0.017887,0.015823 -0.028611,0.021937c-0.040738,0.022891 -0.075031,0.051699 -0.109126,0.083635c-0.02304,0.02159 -0.046026,0.041408 -0.065118,0.066032c-0.024388,0.031503 -0.041652,0.066466 -0.059445,0.103067c-0.017075,0.034813 -0.032898,0.068294 -0.042905,0.105707c-0.003648,0.013805 -0.012931,0.024388 -0.015673,0.038619l-1.442826,7.471516c-0.003609,0.018801 0.002261,0.036404 0.000481,0.055111c-0.004034,0.04021 -0.00327,0.079018 0.001111,0.119851c0.004373,0.039824 0.011686,0.076906 0.023805,0.114414c0.005815,0.018376 0.003798,0.037279 0.011544,0.055363c0.009952,0.023174 0.026113,0.040975 0.038524,0.062179c0.010961,0.018762 0.020676,0.03694 0.033615,0.054347c0.036885,0.049784 0.079404,0.09302 0.128314,0.128077c0.006304,0.00457 0.010724,0.010819 0.017217,0.015105c0.058578,0.038666 0.124129,0.063243 0.192376,0.079113c0.007604,0.001781 0.013183,0.007115 0.020873,0.008605c0.037705,0.007171 0.074692,0.010488 0.110907,0.010582c0.000481,0 0.000961,0.000197 0.001442,0.000197c0.000095,0 0.000142,-0.000055 0.000244,-0.000055c0.000189,0 0.000331,0.000055 0.000528,0.000055c0.075842,0 0.148123,-0.017272 0.21618,-0.044394c0.005335,-0.002064 0.010913,-0.001056 0.016209,-0.003317l5.303817,-2.273074l6.479615,2.286927c0.004476,0.001584 0.008943,0.000867 0.013419,0.002309c0.059059,0.019376 0.120473,0.03155 0.183574,0.03155c0.072525,0 0.142072,-0.017272 0.208584,-0.042661c0.008077,-0.003034 0.016547,-0.001639 0.024577,-0.005051l5.515813,-2.36392c0.017745,-0.007604 0.029092,-0.022512 0.045687,-0.031598c0.035207,-0.019242 0.066079,-0.040975 0.096188,-0.066466c0.029242,-0.024719 0.055552,-0.049587 0.07912,-0.078971c0.023513,-0.029194 0.042078,-0.059539 0.059728,-0.092681zm-16.27614,-4.979708l2.53725,-1.240199l1.073795,1.460422l-0.407548,3.990659l-4.379106,1.876771l1.175609,-6.087653zm3.992432,4.236129l0.313621,-3.070661l2.119026,2.881989c0.111577,0.15159 0.30857,0.240852 0.496329,0.240852s0.364745,-0.089648 0.47633,-0.240852l1.882736,-2.561205l0.489016,4.788821l-5.777058,-2.038944zm6.570232,2.0552l-0.587229,-5.750511l0.602374,-0.819476l3.30777,-1.616921l1.206151,6.245933l-4.529066,1.940975zm-3.651255,-15.493218c2.44241,0.00539 4.42696,1.994944 4.42696,4.439662c0,1.153877 -0.514026,2.127299 -0.949571,2.745598c-0.001537,0.001923 -0.003073,0.003459 -0.004618,0.005382l-3.472772,4.724381l-3.460464,-4.706683c-0.002309,-0.002687 -0.003853,-0.005382 -0.006162,-0.008077c-0.438617,-0.617913 -0.961107,-1.598262 -0.961107,-2.760601c0,-2.444719 1.985322,-4.434272 4.427732,-4.439662z"/>
  <path id="svg_3" fill="#b94545" d="m9.414975,9.738248c1.74121,0 3.15821,-1.41895 3.15821,-3.16309s-1.417,-3.16308 -3.15821,-3.16308c-1.74218,0 -3.15918,1.41894 -3.15918,3.16308s1.417,3.16309 3.15918,3.16309zm0,-5.32617c1.19043,0 2.15821,0.97021 2.15821,2.16308s-0.96778,2.16309 -2.15821,2.16309s-2.15918,-0.97022 -2.15918,-2.16309s0.96875,-2.16308 2.15918,-2.16308z"/>
 </g>
</svg>