<?xml version="1.0" encoding="UTF-8" standalone="no"?><!-- Generator: Gravit.io --><svg xmlns="http://www.w3.org/2000/svg" xmlns:xlink="http://www.w3.org/1999/xlink" style="isolation:isolate" viewBox="0 0 10 10" width="10pt" height="10pt"><defs><clipPath id="_clipPath_BLIDhGACrV8fmSBjhhCBJQgZ28GgjeNr"><rect width="10" height="10"/></clipPath></defs><g clip-path="url(#_clipPath_BLIDhGACrV8fmSBjhhCBJQgZ28GgjeNr)"><path d=" M 8.889 1.894 L 3.167 7.617 C 3.03 7.774 2.816 7.842 2.614 7.791 C 2.411 7.741 2.254 7.582 2.206 7.378 C 2.159 7.175 2.229 6.962 2.389 6.828 L 8.1 1.111 L 6.111 1.111 C 5.804 1.111 5.556 0.862 5.556 0.556 C 5.556 0.249 5.804 0 6.111 0 L 9.444 0 C 9.751 0 10 0.249 10 0.556 L 10 3.889 C 10 4.196 9.751 4.444 9.444 4.444 C 9.138 4.444 8.889 4.196 8.889 3.889 L 8.889 1.894 Z  M 7.778 6.111 C 7.778 5.804 8.027 5.556 8.333 5.556 C 8.64 5.556 8.889 5.804 8.889 6.111 L 8.889 8.889 C 8.889 9.503 8.391 10 7.778 10 L 1.111 10 C 0.497 10 0 9.503 0 8.889 L 0 2.222 C 0 1.611 0.5 1.111 1.111 1.111 L 3.889 1.111 C 4.196 1.111 4.444 1.36 4.444 1.667 C 4.444 1.973 4.196 2.222 3.889 2.222 L 1.111 2.222 L 1.111 8.889 L 7.778 8.889 L 7.778 6.111 Z " fill="rgb(62,62,62)"/></g></svg>