<svg width="21" height="17" viewBox="0 0 21 17" fill="none" xmlns="http://www.w3.org/2000/svg">
<g clip-path="url(#clip0)">
<path d="M19.9918 1.31259H8.99182C8.85921 1.31259 8.73204 1.36527 8.63827 1.45904C8.5445 1.55281 8.49182 1.67998 8.49182 1.81259V4.31259C8.49182 4.4452 8.5445 4.57238 8.63827 4.66614C8.73204 4.75991 8.85921 4.81259 8.99182 4.81259H9.49182C9.62443 4.81259 9.75161 4.75991 9.84538 4.66614C9.93914 4.57238 9.99182 4.4452 9.99182 4.31259V3.31259H13.4918V13.8126H11.9918C11.8592 13.8126 11.732 13.8653 11.6383 13.959C11.5445 14.0528 11.4918 14.18 11.4918 14.3126V14.8126C11.4918 14.9452 11.5445 15.0724 11.6383 15.1661C11.732 15.2599 11.8592 15.3126 11.9918 15.3126H16.9918C17.1244 15.3126 17.2516 15.2599 17.3454 15.1661C17.4391 15.0724 17.4918 14.9452 17.4918 14.8126V14.3126C17.4918 14.18 17.4391 14.0528 17.3454 13.959C17.2516 13.8653 17.1244 13.8126 16.9918 13.8126H15.4918V3.31259H18.9918V4.31259C18.9918 4.4452 19.0445 4.57238 19.1383 4.66614C19.232 4.75991 19.3592 4.81259 19.4918 4.81259H19.9918C20.1244 4.81259 20.2516 4.75991 20.3454 4.66614C20.4391 4.57238 20.4918 4.4452 20.4918 4.31259V1.81259C20.4918 1.67998 20.4391 1.55281 20.3454 1.45904C20.2516 1.36527 20.1244 1.31259 19.9918 1.31259ZM9.99182 7.31259H0.991821C0.859213 7.31259 0.732036 7.36527 0.638268 7.45904C0.5445 7.55281 0.491821 7.67998 0.491821 7.81259L0.491821 9.81259C0.491821 9.9452 0.5445 10.0724 0.638268 10.1661C0.732036 10.2599 0.859213 10.3126 0.991821 10.3126H1.49182C1.62443 10.3126 1.75161 10.2599 1.84537 10.1661C1.93914 10.0724 1.99182 9.9452 1.99182 9.81259V8.81259H4.49182V13.8126H3.49182C3.35921 13.8126 3.23204 13.8653 3.13827 13.959C3.0445 14.0528 2.99182 14.18 2.99182 14.3126V14.8126C2.99182 14.9452 3.0445 15.0724 3.13827 15.1661C3.23204 15.2599 3.35921 15.3126 3.49182 15.3126H7.49182C7.62443 15.3126 7.75161 15.2599 7.84537 15.1661C7.93914 15.0724 7.99182 14.9452 7.99182 14.8126V14.3126C7.99182 14.18 7.93914 14.0528 7.84537 13.959C7.75161 13.8653 7.62443 13.8126 7.49182 13.8126H6.49182V8.81259H8.99182V9.81259C8.99182 9.9452 9.0445 10.0724 9.13827 10.1661C9.23204 10.2599 9.35921 10.3126 9.49182 10.3126H9.99182C10.1244 10.3126 10.2516 10.2599 10.3454 10.1661C10.4391 10.0724 10.4918 9.9452 10.4918 9.81259V7.81259C10.4918 7.67998 10.4391 7.55281 10.3454 7.45904C10.2516 7.36527 10.1244 7.31259 9.99182 7.31259Z" fill="#B31111"/>
</g>
<defs>
<clipPath id="clip0">
<rect width="20" height="16" fill="white" transform="translate(0.491821 0.312592)"/>
</clipPath>
</defs>
</svg>
