<svg width="21" height="21" viewBox="0 0 21 21" fill="none" xmlns="http://www.w3.org/2000/svg">
<g clip-path="url(#clip0)">
<path d="M14.25 9.75C14.25 8.30469 13.7363 7.06836 12.709 6.04102C11.6816 5.01367 10.4453 4.5 9 4.5C7.55469 4.5 6.31836 5.01367 5.29102 6.04102C4.26367 7.06836 3.75 8.30469 3.75 9.75C3.75 11.1953 4.26367 12.4316 5.29102 13.459C6.31836 14.4863 7.55469 15 9 15C10.4453 15 11.6816 14.4863 12.709 13.459C13.7363 12.4316 14.25 11.1953 14.25 9.75ZM20.25 19.5C20.25 19.9063 20.1016 20.2578 19.8047 20.5547C19.5078 20.8516 19.1563 21 18.75 21C18.3281 21 17.9766 20.8516 17.6953 20.5547L13.6758 16.5469C12.2773 17.5156 10.7188 18 9 18C7.88281 18 6.81445 17.7832 5.79492 17.3496C4.77539 16.916 3.89648 16.3301 3.1582 15.5918C2.41992 14.8535 1.83398 13.9746 1.40039 12.9551C0.966797 11.9355 0.75 10.8672 0.75 9.75C0.75 8.63281 0.966797 7.56445 1.40039 6.54492C1.83398 5.52539 2.41992 4.64648 3.1582 3.9082C3.89648 3.16992 4.77539 2.58398 5.79492 2.15039C6.81445 1.7168 7.88281 1.5 9 1.5C10.1172 1.5 11.1855 1.7168 12.2051 2.15039C13.2246 2.58398 14.1035 3.16992 14.8418 3.9082C15.5801 4.64648 16.166 5.52539 16.5996 6.54492C17.0332 7.56445 17.25 8.63281 17.25 9.75C17.25 11.4688 16.7656 13.0273 15.7969 14.4258L19.8164 18.4453C20.1055 18.7344 20.25 19.0859 20.25 19.5Z" fill="#A51C30"/>
</g>
<defs>
<clipPath id="clip0">
<rect width="21" height="21" fill="white"/>
</clipPath>
</defs>
</svg>
