<?xml version="1.0" encoding="UTF-8" standalone="no"?><!-- Generator: Gravit.io --><svg xmlns="http://www.w3.org/2000/svg" xmlns:xlink="http://www.w3.org/1999/xlink" style="isolation:isolate" viewBox="0 0 12 12" width="12pt" height="12pt"><defs><clipPath id="_clipPath_OpinaFXZt2ZuMZOpBpSYWxD3DubseSRU"><rect width="12" height="12"/></clipPath></defs><g clip-path="url(#_clipPath_OpinaFXZt2ZuMZOpBpSYWxD3DubseSRU)"><clipPath id="_clipPath_zSMEYLMcyiGuivkYESJotTuzCtOnH5Vm"><rect x="0" y="0" width="12" height="12" transform="matrix(1,0,0,1,0,0)" fill="rgb(255,255,255)"/></clipPath><g clip-path="url(#_clipPath_zSMEYLMcyiGuivkYESJotTuzCtOnH5Vm)"><g><g><g><path d=" M 10.749 2.273 L 3.882 9.14 C 3.718 9.329 3.462 9.41 3.219 9.35 C 2.976 9.289 2.787 9.098 2.73 8.854 C 2.673 8.61 2.758 8.355 2.949 8.193 L 9.803 1.333 L 7.416 1.333 C 7.048 1.333 6.749 1.035 6.749 0.667 C 6.749 0.299 7.048 0 7.416 0 L 11.416 0 C 11.784 0 12.083 0.299 12.083 0.667 L 12.083 4.667 C 12.083 5.035 11.784 5.333 11.416 5.333 C 11.048 5.333 10.749 5.035 10.749 4.667 L 10.749 2.273 Z  M 9.416 7.333 C 9.416 6.965 9.714 6.667 10.083 6.667 C 10.451 6.667 10.749 6.965 10.749 7.333 L 10.749 10.667 C 10.749 11.403 10.152 12 9.416 12 L 1.416 12 C 0.68 12 0.083 11.403 0.083 10.667 L 0.083 2.667 C 0.083 1.933 0.683 1.333 1.416 1.333 L 4.749 1.333 C 5.117 1.333 5.416 1.632 5.416 2 C 5.416 2.368 5.117 2.667 4.749 2.667 L 1.416 2.667 L 1.416 10.667 L 9.416 10.667 L 9.416 7.333 Z " fill="rgb(165,28,48)"/></g></g></g></g></g></svg>