<svg width="19" height="19" xmlns="http://www.w3.org/2000/svg">

 <g>
  <title>background</title>
  <rect fill="none" id="canvas_background" height="21" width="21" y="-1" x="-1"/>
 </g>
 <g>
  <title>Layer 1</title>
  <path stroke="null" fill="#b94545" id="svg_1" fill-rule="evenodd" d="m17.332351,17.303176l-15.606353,0c-0.907215,0 -1.642773,-0.735558 -1.642773,-1.642773l0,-12.320806c0,-0.907215 0.735558,-1.642773 1.642773,-1.642773l15.606353,0c0.907215,0 1.642773,0.735558 1.642773,1.642773l0,12.320806c0,0.907215 -0.735558,1.642773 -1.642773,1.642773zm0.82138,-13.96358c0,-0.453407 -0.367973,-0.82138 -0.82138,-0.82138l-15.606353,0c-0.453407,0 -0.82138,0.367973 -0.82138,0.82138l0,2.464167l17.249113,0l0,-2.464167zm0,3.285547l-17.249113,0l0,9.03526c0,0.453407 0.367973,0.82138 0.82138,0.82138l15.606353,0c0.453407,0 0.82138,-0.367973 0.82138,-0.82138l0,-9.03526zm-1.642773,5.749713l-0.82138,0c-0.22671,0 -0.41069,-0.18358 -0.41069,-0.41069l0,-0.821393c0,-0.226697 0.18398,-0.41069 0.41069,-0.41069l0.82138,0c0.227124,0 0.410703,0.183993 0.410703,0.41069l0,0.821393c0,0.22711 -0.18358,0.41069 -0.410703,0.41069zm0,-2.874857l-0.82138,0c-0.22671,0 -0.41069,-0.18358 -0.41069,-0.41069l0,-0.821393c0,-0.22711 0.18398,-0.41069 0.41069,-0.41069l0.82138,0c0.227124,0 0.410703,0.18358 0.410703,0.41069l0,0.821393c0,0.22711 -0.18358,0.41069 -0.410703,0.41069zm-3.285547,2.874857l-0.82138,0c-0.22671,0 -0.41069,-0.18358 -0.41069,-0.41069l0,-0.821393c0,-0.226697 0.18398,-0.41069 0.41069,-0.41069l0.82138,0c0.22711,0 0.410703,0.183993 0.410703,0.41069l0,0.821393c0,0.22711 -0.183593,0.41069 -0.410703,0.41069zm0,-2.874857l-0.82138,0c-0.22671,0 -0.41069,-0.18358 -0.41069,-0.41069l0,-0.821393c0,-0.22711 0.18398,-0.41069 0.41069,-0.41069l0.82138,0c0.22711,0 0.410703,0.18358 0.410703,0.41069l0,0.821393c0,0.22711 -0.183593,0.41069 -0.410703,0.41069zm-3.285547,2.874857l-0.82138,0c-0.22711,0 -0.41069,-0.18358 -0.41069,-0.41069l0,-0.821393c0,-0.226697 0.18358,-0.41069 0.41069,-0.41069l0.82138,0c0.22711,0 0.410703,0.183993 0.410703,0.41069l0,0.821393c0,0.22711 -0.183593,0.41069 -0.410703,0.41069zm0,-2.874857l-0.82138,0c-0.22711,0 -0.41069,-0.18358 -0.41069,-0.41069l0,-0.821393c0,-0.22711 0.18358,-0.41069 0.41069,-0.41069l0.82138,0c0.22711,0 0.410703,0.18358 0.410703,0.41069l0,0.821393c0,0.22711 -0.183593,0.41069 -0.410703,0.41069zm-3.285547,5.749713l-0.82138,0c-0.22711,0 -0.41069,-0.18358 -0.41069,-0.410703l0,-0.82138c0,-0.22711 0.18358,-0.41069 0.41069,-0.41069l0.82138,0c0.22711,0 0.410703,0.18358 0.410703,0.41069l0,0.82138c0,0.227124 -0.183593,0.410703 -0.410703,0.410703zm0,-2.874857l-0.82138,0c-0.22711,0 -0.41069,-0.18358 -0.41069,-0.41069l0,-0.821393c0,-0.226697 0.18358,-0.41069 0.41069,-0.41069l0.82138,0c0.22711,0 0.410703,0.183993 0.410703,0.41069l0,0.821393c0,0.22711 -0.183593,0.41069 -0.410703,0.41069zm0,-2.874857l-0.82138,0c-0.22711,0 -0.41069,-0.18358 -0.41069,-0.41069l0,-0.821393c0,-0.22711 0.18358,-0.41069 0.41069,-0.41069l0.82138,0c0.22711,0 0.410703,0.18358 0.410703,0.41069l0,0.821393c0,0.22711 -0.183593,0.41069 -0.410703,0.41069zm-3.285547,5.749713l-0.82138,0c-0.22711,0 -0.41069,-0.18358 -0.41069,-0.410703l0,-0.82138c0,-0.22711 0.18358,-0.41069 0.41069,-0.41069l0.82138,0c0.22711,0 0.410703,0.18358 0.410703,0.41069l0,0.82138c0,0.227124 -0.183593,0.410703 -0.410703,0.410703zm0,-2.874857l-0.82138,0c-0.22711,0 -0.41069,-0.18358 -0.41069,-0.41069l0,-0.821393c0,-0.226697 0.18358,-0.41069 0.41069,-0.41069l0.82138,0c0.22711,0 0.410703,0.183993 0.410703,0.41069l0,0.821393c0,0.22711 -0.183593,0.41069 -0.410703,0.41069zm5.749713,1.232083l0.82138,0c0.22711,0 0.410703,0.18358 0.410703,0.41069l0,0.82138c0,0.227124 -0.183593,0.410703 -0.410703,0.410703l-0.82138,0c-0.22711,0 -0.41069,-0.18358 -0.41069,-0.410703l0,-0.82138c0,-0.22711 0.18358,-0.41069 0.41069,-0.41069z" clip-rule="evenodd"/>
 </g>
</svg>