<svg width="20" height="23" viewBox="0 0 20 23" fill="none" xmlns="http://www.w3.org/2000/svg">
<path d="M20 13.2143C20 16.1741 17.6027 18.5714 14.6429 18.5714H14.2857C13.4955 18.5714 12.8571 17.933 12.8571 17.1429C12.8571 16.3527 13.4955 15.7143 14.2857 15.7143H14.6429C16.0223 15.7143 17.1429 14.5937 17.1429 13.2143V12.8571H14.2857C12.7098 12.8571 11.4286 11.5759 11.4286 10V7.14286C11.4286 5.56696 12.7098 4.28571 14.2857 4.28571H17.1429C18.7188 4.28571 20 5.56696 20 7.14286V8.57143V10V13.2143ZM8.57143 13.2143C8.57143 16.1741 6.17411 18.5714 3.21429 18.5714H2.85714C2.06696 18.5714 1.42857 17.933 1.42857 17.1429C1.42857 16.3527 2.06696 15.7143 2.85714 15.7143H3.21429C4.59375 15.7143 5.71429 14.5937 5.71429 13.2143V12.8571H2.85714C1.28125 12.8571 0 11.5759 0 10V7.14286C0 5.56696 1.28125 4.28571 2.85714 4.28571H5.71429C7.29018 4.28571 8.57143 5.56696 8.57143 7.14286V8.57143V10V13.2143Z" fill="#836767"/>
</svg>
