<svg width="16" height="16" viewBox="0 0 16 16" fill="none" xmlns="http://www.w3.org/2000/svg">
<path d="M15.5758 4.53328L8.1901 1.02435C8.07194 0.968618 7.93515 0.968618 7.81735 1.02435L0.43291 4.53328C0.281525 4.60501 0.184998 4.7578 0.184998 4.92572C0.184998 5.09293 0.281525 5.24554 0.43291 5.31763L7.81735 8.82602C7.87625 8.8538 7.9399 8.86805 8.00355 8.86805C8.06737 8.86805 8.1312 8.8538 8.1901 8.82602L15.5758 5.31763C15.7272 5.24554 15.8237 5.09293 15.8237 4.92572C15.8237 4.7578 15.7272 4.60501 15.5758 4.53328Z" fill="#647F94"/>
<path d="M8.00371 11.971C7.91879 11.971 7.83404 11.9525 7.75509 11.9153L0.370829 8.40669C0.0819495 8.26937 -0.0407758 7.92422 0.0961912 7.63552C0.233334 7.34682 0.578301 7.22392 0.867708 7.36088L8.00336 10.7513L15.1409 7.36088C15.4291 7.22374 15.775 7.34629 15.9121 7.63552C16.0492 7.9244 15.9267 8.26937 15.6375 8.40669L8.25215 11.9153C8.17355 11.9524 8.08863 11.971 8.00371 11.971Z" fill="#45596B"/>
<path d="M8.00371 14.9296C7.91878 14.9296 7.83404 14.9111 7.75509 14.8738L0.370829 11.3654C0.0819495 11.2283 -0.0407758 10.8826 0.0961912 10.5938C0.233334 10.3045 0.578301 10.182 0.867708 10.3191L8.00336 13.7094L15.1411 10.3191C15.4298 10.182 15.7751 10.3045 15.9123 10.5938C16.0494 10.8826 15.9269 11.2281 15.638 11.3654L8.25215 14.8738C8.17355 14.9111 8.08863 14.9296 8.00371 14.9296Z" fill="#45596B"/>
</svg>
